<?xml version="1.0" encoding="UTF-8"?>
<svg id="Layer_1" xmlns="http://www.w3.org/2000/svg" version="1.1" viewBox="0 0 565.1 556.59">
  <!-- Generator: Adobe Illustrator 29.8.1, SVG Export Plug-In . SVG Version: 2.1.1 Build 2)  -->
  <defs>
    <style>
      .st0 {
        fill: #698e85;
      }

      .st1 {
        fill: #a39d66;
      }

      .st2 {
        fill: #3d583a;
      }

      .st3 {
        fill: #b8b070;
      }

      .st4 {
        fill: #e5c083;
      }

      .st5 {
        fill: #f4dfb7;
      }

      .st6 {
        fill: none;
        stroke: #3d583a;
        stroke-miterlimit: 10;
        stroke-width: 18.17px;
      }

      .st7 {
        fill: #2f4b33;
      }
    </style>
  </defs>
  <polygon class="st5" points="481.78 409.76 481.78 142.61 250.43 9.04 19.07 142.61 19.07 409.76 250.43 543.34 481.78 409.76"/>
  <g id="_x36_pqDSp.tif">
    <path class="st4" d="M470.15,136.78c.47.27,1.63,2.03,3.18,2.33l.95,86.87c-29.03,2.54-58.15-1.44-86.92-5.09-.65-3,2.63-3.16,4.74-3.49,18.68-2.95,39.46-2.29,58.53-4.46.74-.08,3.36-.29,3.3-1.34-1.63-.22-3.07-1.17-4.71-1.38-21.24-2.76-44.38-.76-65.83-.74-18.02.01-36.91.77-55.12,0-4.2-.18-13.37-.53-16.97-1.64-.61-.19-1.25-.55-1.25-1.24,18.12-3.6,38.06-.57,56.1-2.25,1.68-.16,5.42-.41,6.18-2.04-3.26-.86-8.75-1.64-11.64-3.04-.98-.47-1.47-.77-1.24-1.97,6.79-1.61,13.67-.96,20.43-1.4,17.58-1.16,35.08-2.76,52.59-4.33-3.15-4-9.47-2.41-13.95-2.86-8.77-.88-19.64.21-26.54-.65-1.37-.17-.69-1.38-2.06-1.55-10.69-1.34-27.99-.02-39.45.03-22.79.1-47.39,1.98-70.15.77-2-.11-14.08-1.37-14.63-2.21l-.02-2.1c4.1-.13,8.66-1.78,12.53-2.15,11.17-1.06,26.72-1.98,37.97-2.18,2.3-.04,4.57,1.14,7.17.8,1.27-.17,5.39-2.13,8.58-2.23,4.83-.16,9.07.08,14.19-.78,3.3-.55,6.51-1.35,9.75-2.07v-2.13c-7.51-1.36-14.96-1.07-22.58-1.4-11.12-.49-22.46-1.16-33.61-1.51-1.96-.06-6.53,1.06-7.74.76-.62-.15-.19-1.3-1.52-1.48-10.68-1.45-26.25-.41-37.98-1.38-7.51-.62-15.04-1.61-22.56-2.14l.71-2.51c14.3-2.38,28.87-2.74,43.32-3.93,16.25-1.33,34.32-1.7,50.11-3.57,3.81-.45,8.58-.45,11.1-3.56-17.91-2.83-35.97-4.76-53.94-7.26-11.74-1.63-21.39-4.35-33.78-4.22-3.89.04-8.03,1.33-12.18.81-1.37-.17-.68-1.37-2.05-1.54-2.39-.3-5.36.28-7.91.05-6.49-.59-13.02-1.33-19.52-1.96-1.44-.66-1.85-1.42-1.61-3.03,8.06-2.41,16.49-.89,24.72-1.41,12.95-.83,26.07-2.83,38.7-4.25,13.93-1.57,27.87-3.27,41.8-4.72-5.6-3.62-15.05-4.12-21.84-4.64-9.51-.74-24.27,1.11-32.26.05-1.37-.18-.68-1.37-2.05-1.54-6.95-.88-15.86-.06-22.95-.67-4.42-.38-8.88-1.45-13.25-2.15-.2-1.84,0-1.14,1.04-1.45,3.83-1.12,9.6-1.76,13.64-2.12,16.22-1.43,34.88-.81,50.8-3.6.99-.17,3.36-1.64,1.82-2.5l-33.98-2.52c-11.13.73-22.49-.69-33.56-.42-4.29.1-8.7,1.88-13.76,1.22-1.33-.17-.94-1.34-1.52-1.47-4.61-1.04-11.02.3-15.78-2.69-.74-.46-1.25.04-.92-1.61,4.3-.44,9.04-1.93,13.36-2.1,9.79-.38,19.97-.32,29.89-1.54.68-.08,6.12-1.33,4.71-2.79-5.54-2.17-11.72-1.52-17.53-2.16-9.62-1.06-19.94-1.58-29.29-2.93-4.66-.67-6.73.56-11.52.78-3.65.16-6.65.7-9.26-2.18-3.38-3.74-10.63-14.37-13.32-18.88-.4-.68-.98-1.13-.64-2.09.22-.75,11.78-7.02,13.52-7.99,1.95-1.09,3.86-2.24,5.58-3.19,8.21-4.58,24.5-14.74,32.39-17.52.61-.21,1.9-.83,2.16,0l-8.44,9.46.13.85,43.7-27.84c54.46,28.42,109.14,56.39,163.64,84.75,21.54,11.21,45.38,22.3,66.31,34.25ZM282.13,45.69c-.19-1.19-1.4-1.29-2.3-1.63-5.5-2.09-27.03-2.77-33.18-1.99-1.37.17-.68,1.37-2.05,1.54-3.25.42-6.6-.8-9.28-.7-3.72.13-10.62.85-14.35,1.4-.63.09-5.53,1.71-3.98,2.82,2.89-1.23,3.75,1.44,3.99,1.45.72.04,2.16-.76,3.5-.77,17.61-.16,36.21,1.74,53.68-.72,1.42-.2,2.54-1.28,3.98-1.4ZM235.61,59.29c-3.6.48-6.93-1.06-10.39-1.42-10.48-1.11-25.17-.67-35.77,0-2.04.13-17.54,1.91-17.53,3.21,2.64,1.67,7.2,2.3,10.34,2.53,11.2.81,28.16.69,39.43,0,4.68-.28,9.33-1.44,13.93-2.18v-2.14ZM320.79,60.73c-.28-.31-7.01-1.31-8.24-1.43-13.83-1.39-27.65.04-41.47.75l-7.55,2.81c6.1.56,13.7,3.03,19.7,2.91,8.38-.18,19.42-.77,27.81-1.55,1.88-.18,7.26-1.2,8.86-1.88.79-.34,1.75-.67.89-1.6ZM344.41,75.74c-2.62.11-4.97-1.18-7.52-1.43-46.43-4.51-89.77-1.68-135.68,4.59-.88.12-1.81-.41-2.12,1.12,8.18.75,16.45,2.48,24.67,2.9,35.23,1.78,69.7-1.79,104.54-3.46,4.04-.19,2.96.11,6.62-.81,2.91-.73,7.56-.19,9.48-2.9ZM372.33,96.46c-.71-1.65-3.79-1.97-5.38-2.13-5.19-.5-12.48-.59-17.86-.75-19.97-.6-40.19-.16-59.81,3.25-.01.4,6.6,2.25,7.61,2.42,4.34.74,10.92.05,14.1.81.63.15-.13,1.26,2.2,1.47,7.08.62,17.77-1.45,25.11-1.51,3.82-.03,8.06,1.28,11.53.8,1.33-.18.94-1.33,1.52-1.47,2.98-.7,9.55-.19,13.42-.78,2.14-.32,5.42-1.44,7.56-2.11ZM406.69,112.93l-12.53-2.16c-15.14-.17-30.61.47-45.7.76l-12.65,2.46c22.09,5.88,47.01,3.24,69.65,1.08l1.23-2.15ZM429.6,137.95l-.32-2.18c-.36-.51-10.44-1.91-12.22-2.1-35.63-3.78-72.6-3.26-108.1.7-6.52.73-13.05-.07-19.53,2.66-.98.41-2.39.55-2.3,1.99,5.33.66,10.76,1.3,16.12,1.79,2.56.23,5.52-.35,7.91-.05,1.37.17.68,1.37,2.05,1.54,5.14.65,13.04-.16,18.02,0,8.68.28,17.71.46,26.46.71,1.34.04.62-1.36,2.05-1.55,2.95-.37,7.85.85,11.53.8,4.31-.05,9.91-1.24,14.29-1.45,14.71-.72,29.46-.46,44.02-2.87ZM431.39,135.8v.72c.46-.24.46-.48,0-.72ZM452.5,153.69c-27.31-3.53-54.94-3.74-82.32-.72-.29,1.63.09,1.14.92,1.6,1.35.74,6.51,2.19,8.2,2.52,11.85,2.3,24.34,1.16,36.26.95,5.46-.09,4.75.52,10.23-.77s15.53-.26,22.45-1.77c.93-.2,3.94-.86,4.26-1.81ZM426,172.3c-1.49-1.09-1.3,1.28-1.87,1.42-6.18,1.54-15.93-.65-22.05,1.45-1.17.4-2.09.52-1.82,2.1,10.77,1.4,21.69,1.91,32.6,1.46,3.3-.14,6.33-1.55,9.87-.26l9.07-2.62c-3.18-1.89-9.92-.18-10.74-3.58l-1.08,2.15c-3.79-1.91-9.96.23-13.49-.72-.68-.18-.41-1.36-.49-1.41Z"/>
  </g>
  <path class="st0" d="M193.03,240.01c-.43-2.22,1.23-1.25,2.7-1.38,6.21-.55,9.74-.03,15.46.01,87.5.59,175.22-1.04,262.58-.76,3.66.01,9.71-.83,10.85,2.11.88,62.16,3.9,113.87,3.04,176.04-2.8,4.8-16.75,14.81-22.17,12.61-99.91.37-123.93,100.77-223.73,102.22-8.28.12-151.64-73.31-159.5-74.05-6.34-.6-33.85-31.33-39.51-35.64,2.35.13,88.35,8.4,90.35,8.46,1.76.05,2.92-.26,4.86,0,1.54.19.95-.05.83-1.13l-25.26-7.62c-6.63-3.29-15.35-6.19-22.77-8.51-1.3-.41-2.37-.97-3.87-.7-.27-.14-.48-.55-.77-.7-1.13-.6-2.05-.9-3.1-1.4-3.77-1.8-11.15-4.96-13.59-7.67-3.88-4.31-7.67-11.39-6.38-17.04,1.2-5.23,12.05-11.39,17.07-13.83,6.72-3.27,13.28-5.14,20.96-7.84,1.18-.42,1.09-1.7,2.26-2.19,3.47-1.44,16.76-4.73,21.33-5.88,18.2-4.58,37.16-6.95,55.35-11.53,6.7-3.1-4.91-5.37-7.08-6.61-.3-.17-3.74-3.32-3.16-3.76,5.8,1.26,11.01-.41,16.68-.7,10.99-.56,22.31-1.17,33.32-.97,1.08-.7,5.94-5.19,6.36-5.33,8.32-2.76,30.07,4.72,39.14,1.1,2.87-1.67,30.4-10.39,31.72-12.84,2.11-3.95-14.98-7.91-17.93-9.33-10.19-4.89-28.16-4.53-38.46-7.23-4.23-1.11-29.37-6.31-30.75-10.09,8.36,1.84,37.12,4.31,45.4,5.03,10.56.92,21.28,2.77,31.73,3.49,3.63.25,10.11,2.2,12.14-.96-6.07-1.4-12.24-2.95-18.39-4.03-5.09-.9-8.88-.68-13.65-1.09-1.71-.15-5.35-2-8.07-2.38-7.43-1.04-15.83-1.74-23.08-2.26-3.77-.27-8,.35-11.57-.04-2.51-.27-28.23-3.58-29.41-5.47-1.59-2.55.82-15.93.8-18.94.47-1.52,23.93-.81,26.94-1.67,1.41-.4,1.75-2.29,1.3-2.67-.87-.74-28.23-.09-29.24-.87-1-2.74-.4-13.25-1.74-15.94ZM292.18,257.53c-16.42-1.55-33.14-1.09-49.58-.36-.01.35,3,1.4,3.7,1.56,9.91,2.29,34.28,2.46,43.94-.1.72-.19,1.75.22,1.93-1.1ZM333.22,270.14c-13.58.84-28.87-1.5-42.22,0-1.08.12-2.29.43-1.15,1.4.48.4,11.2,1.99,12.79,2.1,8.56.59,16.97-.87,25.51-.73l5.07-2.76ZM357.02,250.98c-1.08.12-2.29.43-1.15,1.4.48.4,11.2,1.99,12.79,2.1,8.56.59,25.2,2.36,25.51-.73s-23.79-4.27-37.15-2.77ZM455.61,249.93c.75-.08,1.6-.27.8-.87-.33-.25-7.83-1.24-8.94-1.31-5.98-.37-17.61-1.47-17.82.45s16.63,2.66,25.96,1.72ZM413.47,268.2c-1.08.12-2.29.43-1.15,1.4.48.4,11.2,1.99,12.79,2.1,8.56.59,27.13-.04,27.44-3.13.3-3.09-25.72-1.87-39.08-.37ZM263.52,272.24c-10.21-2.39-20.24-.78-30.6,0-.72.05-2.73-.33-1.93,1.04.09.16,2.62,2.48,2.82,2.49,1.12.08,2.49-.76,3.8-.76,8.47.04,14.64-.16,23.2-1.37,1.15-.16,2.39-.05,2.7-1.4ZM270.48,334.6l-31.3,2.86c-5.72,2.68-11.32,1.81-17.14,3.42-1.03.29-2.4.05-2.67,1.42,17.4,1.6,33.32.21,49.41-6.13,1.11-.44,2.12.45,1.71-1.57ZM126.42,405.36c4.03,1.04,10.64,2.44,14.72,2.8,1.93.17,5.5.21,7.37,0,1.07-.12,2.41-.52,1.15-1.4-.99-.02-2.22.05-3.12-.33-6.68-2.83-15.23-6.13-21.46-9.3-2.41-1.23-4.91-3.86-7.87-4.76-1.04-1.56-1.26-5.77-.83-7.54.08-.32,4.69-4.5,4.98-4.7,16.9-11.54,56.52-16.54,77.87-21.72,4.5.02,8.85-1.22,13.17-2.1,2.58-.53,5.17-.87,7.74-1.41l-5.77-1.42c-26.07-1.48-73.53,7.9-97.65,17.52-10.67,4.26-24.85,14.36-12.35,24.53,4.84,3.93,15.73,8.19,22.06,9.82ZM270.49,360.53c-1.01-1.19-18.3.07-20.99.43-10.92,1.48-24.18,4.71-34.73,7.66-2.31.65-5.76-.17-7.01,2.41,16.37-1.76,34.5-1.64,50.53-5.09,1.26-.27,10.18-2.71,10.65-2.98s1.67-2.3,1.56-2.43Z"/>
  <path class="st6" d="M481.78,397.81v-243.24c0-7.4-3.95-14.23-10.35-17.93L260.78,15.02c-6.41-3.7-14.3-3.7-20.71,0L29.42,136.64c-6.41,3.7-10.35,10.53-10.35,17.93v243.24c0,7.4,3.95,14.23,10.35,17.93l210.65,121.62c6.41,3.7,14.3,3.7,20.71,0l210.65-121.62c6.41-3.7,10.35-10.53,10.35-17.93Z"/>
  <path class="st5" d="M155.94,149.06c-.31-.14-.58-.26-.78-.36-.87-.54-1.71-1.09-2.53-1.66.33-.03.65-.07.97-.11,5.61-.76,9.6-3.85,10.67-8.26.37-1.51,1.12-6.76-4.63-10.79-3.81-2.68-7.35-4.69-10.77-6.63-.97-.55-1.91-1.09-2.83-1.62,2.4-.42,4.75-1.06,6.21-2.05,4.65-3.14,4.75-7.41,4.57-9.1-.65-6.33-6.73-8.85-10.76-10.51-.42-.17-.79-.32-1.07-.45-1.28-.77-2.48-1.54-3.6-2.32h.12s1.78-4.56,1.78-4.56c2.27-5.81,1.01-10.7-3.76-14.52-.12-.09-.24-.19-.36-.29-3.48-4.1-5.58-6.88-7.31-9.73-2.01,1.66-54.45,31.33-55.71,32.28-2.16,1.64-6.65,5.06-6.46,10.76.07,1.98.82,5.72,5.15,8.57.57.38,1.16.71,1.77,1-4.16,2.58-8.98,4.93-14.59,7.17l-7.34,2.92,2.82,7.38c2.04,5.34,5.86,8.61,10.89,9.42.53,1.32,1.35,2.53,2.46,3.51-1.2.71-2.35,1.34-3.39,1.87-.45.23-1.57.59-2.47.87-3.56,1.13-8.94,2.84-11.34,8.01-.99,2.13-1.79,5.59.03,10l1.53,3.71,3.89.99c.98.25,1.99.44,3.02.56.46,1.91,1.63,4.14,4.28,6.17,2.5,1.91,5.59,2.93,8.93,2.93,2.2,0,4.34-.43,6.34-1.05.02.03.91,1.28.91,1.28l1.23.82c1.79,1.19,3.97,1.79,6.47,1.79,2.78,0,5.9-.75,8.6-1.67v11.36l5.59,1.77c2.25.71,4.34.79,5.72.79.61,0,1.22-.02,1.83-.04.44-.01.87-.03,1.31-.03.36,0,.64.01.84.04.88.11,1.89.34,2.96.58.68.15,1.37.3,2.06.44l10.23,2.03-.69-10.4c-.19-2.89-.26-5.76-.26-8.66,4.32,1.82,8.91,2.78,13.54,2.78,2.74,0,5.47-.34,8.12-1.02l7.67-1.97-1.89-7.69c-.21-.85-.46-1.65-.75-2.41,3.26-.32,5.99-1.17,8.15-2.54,3.34-2.12,5.12-5.41,4.87-9.04-.46-6.87-7.56-10.14-12.26-12.3Z"/>
  <path class="st2" d="M151.15,155.63c-8.57-5.27-14.4-11.46-20.85-19.09-.67-3.32,2.19-.26,3.7.3,4.97,1.82,13.33,2.87,18.53,2.16,2.98-.4,5.85-2.25,2.52-4.58-10.97-7.7-20.64-10.08-29.5-21.75-1.46-1.92-4.63-5.42-3.68-7.64,3.93,2.5,9.97,6.82,14.63,7.33,1.81.2,10.08-.6,11.27-1.41,4.22-2.86-4.88-5.37-6.72-6.47-8.21-4.89-15.28-11.03-18.84-20.09,1.47.21,5.56,1.48,6.9,2.07,1.01.44,5.69,1.37,6.74,1.26,1.71-4.37-1-4.64-2.68-6.62-8.66-10.19-9.94-13.6-15.2-25.38-.54-1.22-.25-5.72-4.09-7.15-2.78,1.99-3.12,5.94-4.49,8.68-1.46,2.92-6.09,12.25-7.8,14.16-1.5,1.68-4.34,2.4-6.22,3.77-1.58,1.15-10.57,7.43-9.1,9.2,5.84,1.86,11.46-1.11,17.3-1.32.65.6-4.12,6.87-4.89,7.75-5.18,5.91-11.85,9.51-17.67,13.94-2.31,1.76-5.12,4.06-1.75,6.28,5.2,3.44,13.31-2.24,18.99-1.69-8.17,11.77-20.19,18.77-33.26,23.96,2.62,6.85,8.33,4.09,13.96,3,.78,1.86-3.24,4.75-3.23,5.66.03,4.54,13.25-2.19,15.18-3.37,1.33-.81,1.94-2.8,4.03-2.29-1.2,3.92-4.62,7.74-7.64,10.66-4.11,3.98-11.05,8.51-16.17,11.12-4.13,2.11-12.62,2.43-10.03,8.7,6.5,1.66,12.99-1.35,19.19-3.2-1.3,1.22-2.85,3.97-4.06,4.91-1.74,1.36-9.48,2.94-4.94,6.41,4.08,3.13,10.51-.24,14.46-2.23,1.09-.55,1.2-1.61,1.3-1.65.36-.13,1.32.59,2.08.42,1.18-.27,1.85-1.42,3.14-1.22.27,3.49-6.24,5.2-4.01,8.33,2.37,1.57,10.16-1.28,12.6-2.74,1.12-.67,5.05-5.28,6.05-4.27v19.29c2.67.84,5.54.1,8.32.46,1.87.24,3.7.74,5.54,1.1-.54-8.09-.18-16.06.13-24.18,6.88,7.53,17.28,11.56,27.26,9-1.92-7.83-10.35-8.6-11.96-16.32,4.59,3.52,18.03,5.76,22.84,2.71,4.79-3.04-6.48-7.15-7.89-8.02Z"/>
  <g id="_x37_r4zLB.tif">
    <g>
      <g>
        <path class="st5" d="M268.69,305.81c-7.49-2.36-14.31-5.96-21.32-9.33-5.18-2.49-11.03-3.84-15.23-8.43-3.58-3.91-6.58-17.75-8.1-23.55h-2c0,.22,0,.44,0,.67-.12,8.46-1.54,18.18,3.33,25.31.52.44.67,1.53,2,1.33.08.19-.09.49,0,.67.44.88.92,1.79,1.33,2.66.41.86,1.87,1.65,1.33,3.33-3.7.54-5.64-2.67-8.24-4.39-.75-.49-1.89-.29-2.79-.89-1.96-1.29-.77-2.92-4.29-4.71-2.09-1.07-.98-1.01-1.33-1.33l-4-81.93c-10.29,2.07-20.8,3.17-31.32,3.33.18,1.01.85,2.43,1.33,3.33,1.08.47,1.1,1.69,2.17,2.21,3.04,1.48,9.94,2.44,13.66,3.61.81.25,2.82.5,2.82,1.51-4.11,2.45-9.79,1.91-14.66,2-.04.44.05.9,0,1.33,2.34-.41,2.07,3.75,2.82,4.51.31.31,7.28,1.9,8.51,2.15.78.16,1.87-.15,2.67,0,.39,1.71-1.7,1.86-2.8,2.18-2.49.73-5.25,1.24-7.86,1.15.02,1.54-.02,4.85.67,6l13.33,2.01c1.29,1.73-12.18,3.47-12.66,4-.08,1.34.72,2.27,1.33,3.32.1.17-.1.53,0,.67,1.86,2.54,9.08,2.66,11.98,5-.03,1.72-13.32,1.54-14.63,3.33,0,2.62,13.91,3.15,16.79,3.86.67.17,2.01.19,1.85,1.13-8.23,1.59-16.12,4.74-24.66,4.67l.4,2.73,18.93,4.6c-.29,1.26-1.67,1.32-2.66,1.66-4.3,1.47-9.55,1.77-14,3.01v1.98s21.33,1.66,21.33,1.66l.66,1-17.32,3c.75,1.96,2.64,2.14,4.53,2.8,5.24,1.83,11.39,2.71,16.79,4.2-.23,1.27-1.39,1.1-2.3,1.35-4.18,1.14-8.88.61-13.02,1.97.03.25.47,1.04.67,1.33,2.96,2.22,5.33,1.48,8.25,2.08,4.8.99,9.46,2.47,14.4,2.59-.13.99-2.89,1.1-3.75,1.23-1.92.28-4-.04-5.57.1-1.13.1-2.23.21-3.24.77l-.09,2.56c21.22,2.98,42.77.88,63.97-.67.06-.12-.01-.43,0-.67Z"/>
        <path class="st5" d="M200.05,316.47c-.32-.3-.61-.67-1.33-1.33-.23-.21-.43-.46-.67-.67-4.27-3.78-8.47-7.81-13.99-9.99-.15-.25-.49-.43-.67-.67-.08-.11.24-.74-.19-1.16-.12-.12-2.63-1.22-3.14-1.5-.23-.21-.44-.45-.67-.67-.49-2.52-3.57-4.72-4.3-6.69-.8-2.15-.4-2.3-1.69-4.64-.86-1.56-1.99-4.11-3.07-5.26-4.89-5.22-24.42-3.79-31.58-4.74l18.95-4.03c4.68-1.49,8.92-3.15,10.34-8.33l-2.59-24.05-.35-20.91c-.33-.65-.73-1.6-1.32-2.02-1.71-1.21-12.01-.58-15.04-.62-.22,0-.44,0-.67,0-5.32-.01-10.67.01-15.99,0,.61,3.31.69,1.89,2.84,3.35.43.29.42,1.15.98,1.3.73.2,1.67-.13,2.18.01,5.19,1.47,10.54,3.04,15.99,2.66-.06.2.08.48,0,.67-5.95,1.57-12.9,2.23-19.04,2.03-.86-.03-1.53-.69-1.61-.69-3.79-.1-7.55-.25-11.33,0-.04,1.1.06,2.23,0,3.33-.36,7.57,1.02,14.96.67,22.33-.08,1.63.48,2.18-1.33.99-.92-1.67-2.23-4.87-2.67-6.66-1.2-4.96-2.1-11.98-2.67-16.65-.03-.22.02-.45,0-.67l-2.63-3.69-8.03.36,6,31.97c1.23,1.67,2.11,3.69,3.33,5.33,1.98,2.65,4.62,5.17,7.33,7.33.78.62,1.44-.08,2,.31.68.47.53,1.56.66,1.69.2.18,1.18.02,1.92,1.05,1.95,2.74,3.24,10.35,5.19,11.5,5.69,3.36,21.28,2.37,28.22,4.77.19,1.59.02,1.06-.93,1.4-3.18,1.14-8.28,1.38-11.74,1.92-.1.09.08.46,0,.67l.67,1.33c.2.44.41.93.67,1.33l23.32,2c.21,1.59.03,1.07-.92,1.4-3.73,1.33-8,.68-11.74,1.92-1.07,2.76-.1,1.56,1.33,3.33,6.41,3.71,15.63,2.53,21.99,6.33l-11.83,2.82-.83,1.5c11.17,2.29,22.54,3.46,33.99,3.33-.43-3.3-2.74-3.47-4-4.66ZM157.4,237.86c-.12.32-1.11.84-1.33,1.33l-19.99,2c-.47-1.37-.83-1.52-.67-3.33,2.73.92,4.44-.57,6.96-.71,4.76-.26,10.4-.2,15.03.71ZM158.73,249.85c.36,1.9-.51,1.07-1.46,1.51-5.72,2.62-14.87,1.71-21.2,3.15v-3.32c7.58-.23,14.97-1.94,22.65-1.33ZM148.38,261.8c3.17-.11,7.37.5,10.7.71.79.05,2.91-.51,2.33.99-7.92,2.49-16.52,2.14-24.66,1.01-.06-.14.02-.43,0-.67,3.89-.61,7.65-1.9,11.63-2.04Z"/>
        <path class="st5" d="M84.77,197.89c-14.89-3.42-30.16-2.88-45.31-3.99.34,1.22,2.09,1.64,3.16,1.83,8.35,1.55,19.28,2.48,27.8,2.85,4.01.18,10.55.43,14.35-.03.08,0-.09-.56,0-.67Z"/>
        <path class="st5" d="M96.76,228.54c-.25-.19-.53-.62-.67-.67l-6.66.68c.41,1.74-.38,4.12,1.33,5.31.11,3.06,1.29,6.93,2,9.99.86,3.72,2.01,8.46,3.33,11.99.48,1.28,4.5,9.76,5.02,9.97.29.12,1.65.27,1.65-.32v-8.99c-1.2-4.67-.47-9.33-1.53-14.13-.98-4.45-3.15-9.42-4.47-13.85Z"/>
        <path class="st5" d="M130.08,301.14c-2.7-1.86-5.42-3.79-8.32-5.34-1.08-.11-1.12-.05-1.01,1.01.26,2.37,7.58,7.48,9.75,9.91,1.96,2.2,3.85,5.89,5.58,8.08.62.79,2.48,2.74,3.33,3,.16-2.27-1.44-4.56-2.53-6.46-1.92-3.34-4.3-7.46-6.8-10.19Z"/>
        <path class="st5" d="M51.74,338.84c-2.74-3.97-5.04-7.65-9.61-9.72-.73,3.39,2.12,3.94,2.99,5.32,2.05,3.26,4.19,7.64,6.71,10.64.73.87,4.07,4.36,4.95,3.69-1.74-1.88-1.56-4.76-2.47-6.84-.15-.35-2.14-2.48-2.57-3.1Z"/>
        <path class="st5" d="M119.42,202.56c6.74,1.02,11.71,2.67,18.91,1.92.68-.07,3.13-.27,3.08-1.25-8.34-1.69-16.81-2.3-25.32-2.01l-.66,1.33c1.28.14,2.77-.18,4,0Z"/>
        <path class="st5" d="M85.78,248.51c.22.69.76,2.69,1.65,2.67-.06-7.29-.87-14.46-3.33-21.31-1.57-.58-2.37-2.02-4.66-1.33-.14,2.14,1.16,3.92,2,5.99,2.11,5.21,2.75,8.92,4.35,13.98Z"/>
        <path class="st5" d="M113.82,319.4c-.33-.23-6.75-3.65-5.73-1.27l14.65,13.66c-.12-1.05-.39-2.16-.91-3.09-.59-1.05-7.14-8.72-8.01-9.3Z"/>
        <path class="st5" d="M54.11,292.48c1.03.7.7,2.37,3.66,2,1.44-1.89-.84-2.09-1.44-2.89-1.25-1.69-1.88-2.74-3.56-4.44-.48-.48-.78-.84-1.33-1.33-4.29-3.82-9.71-6.23-15-8.65l2.96,4.35c.74,1.24,2.52,1.6,3.38,2.31,3.73,3.09,7.4,5.99,11.33,8.66Z"/>
        <path class="st5" d="M156.07,197.23c7.36.37,14.78,3.27,21.99.67-.26-.11-.51-.63-.67-.67-6.79-1.42-14.49-.34-21.32-1.33-.11.23.05.91,0,1.33Z"/>
        <path class="st5" d="M108.09,209.88v-.67c-7.01-1.5-14.18-1.42-21.32-1.33-.16.23-.47.42-.67.67,7.21,1.75,14.61,1.34,21.99,1.33Z"/>
        <path class="st5" d="M60.51,316.75c-1.19-.86-7.72-4.73-8.77-4.92-.97-.17-1.91-.41-1.62.96,2.61,3.14,4.52,4.54,7.99,6.34,3.81,1.97,1.89,2.57,3.68,4.66.71.82,2.28,1.24,3.65,2.67,2.35,2.45,4.8,8.75,7.67,9.99,2.44,1.05-.54-2.92-.71-3.29-2.77-5.91-6.56-12.57-11.89-16.41Z"/>
        <path class="st5" d="M92.1,313.8c-.62-.57-.48-1.13-1.84-1.81-.56-.28-4.27-1.64-3.49.14.83,1.88,5.69,5.99,7.32,7.67,1.07,1.1,2.44,2.43,3.33,4,1.83,3.19,3.92,4.08,5.67,7.32.41-5.04-3.56-10.53-7-13.99-.57-.57-2.88-2.3-4-3.33Z"/>
        <path class="st5" d="M85.02,330.21c-1.41-2.43-1.83-4.26-4.59-5.74-.64,1.76,5.16,10.6,6.33,9.31.72-2.14-1.37-2.93-1.74-3.57Z"/>
        <path class="st5" d="M63.44,241.86c3.82,2.25,3.86,8.96,8,10.66-.09-.54-1.77-5.35-1.94-5.59-1.06-1.42-1.27-.24-3.18-4.22-.32-.66-1.54-1.18-1.54-1.51h-1.33c.11.1-.09.47,0,.67Z"/>
        <path class="st5" d="M82.77,276.5c.19.24.47.42.67.67h.67l1.33,2c.19.05.44-.02.67,0v.67h.67l3.33,4c1.6,1.31,3,2.79,4.67,4-.2,2.06,3.3,4.58,4.67,6.33.59.76.75,2.12,1.32,2.68.76.74,1.67.5,1.33-.66-.44-1.53-3.14-6.84-4.08-8.43-1.58-2.69-4.65-5.94-6.57-8.57-.24-.42-.4-.96-.67-1.33-.17-.25-.44-.47-.67-.67-.95-.81-1.68-.89-2.67-1.33-2.23-1-4.47-2.06-6.99-2l-.34.66c1.61-.03,1.9,1.04,2.67,2Z"/>
        <path class="st5" d="M50.78,260.51c-.21-.06-.48.07-.67,0-3.38-2.9-8.31-4.91-12.42-6.57-.85-.34-2.25-1.49-2.9-.1,2.81,1.71,6.06,3.6,8.66,5.33.36,3.19,2.71,2.46,3.62,3.34,1.06,1.02,1.97,2.72,3.36,4,1.07.99,7.47,7.27,8.01,7.3,1.23.07.58-1.2.45-1.75-.48-1.98-2.67-6.03-4.12-7.56-.51-.54-.66-.78-1.33-1.33,0-.44.01-.89,0-1.33-.89-.34-1.79-1.07-2.67-1.33Z"/>
        <path class="st5" d="M59.12,297.14c.39.15,1.13-.06,1.66,0-1.99-3.92-4.11-.94-1.66,0Z"/>
        <path class="st5" d="M50.42,214.52c-4.19.07-11.55.3-15.53.84-.92.13-1.83-.16-2.1,1.18,11.99.3,25.04,1.53,37.01.7,1.02-.07,3.96-.15,4.3-1.35-7.91-.96-15.69-1.5-23.68-1.37Z"/>
      </g>
      <g>
        <path class="st7" d="M202.05,342.44c.22-.04.45.04.67,0l-.33-.65-.33.65Z"/>
        <path class="st2" d="M310,308.47c-.97,0-1.71-.38-2-1.33-.22-.04-.46.05-.67,0-7.84-1.97-15.76-5.99-23.99-6.66-2.68-.81-5.37-1.85-8-2.66-4.73-1.46-10.61-3.29-15.66-3.19-3.03.06-6.09,1.6-9,1.86-1.09.1-2.23-.07-3.33,0,7.02,3.37,13.84,6.97,21.32,9.33,0,.23.06.55,0,.67-21.2,1.55-42.75,3.65-63.97.67l.09-2.56c1.01-.57,2.11-.67,3.24-.77,1.57-.14,3.66.18,5.57-.1.87-.13,3.63-.24,3.75-1.23-4.95-.12-9.61-1.6-14.4-2.59-2.91-.6-5.29.14-8.25-2.08-.19-.29-.63-1.08-.67-1.33,4.15-1.36,8.84-.83,13.02-1.97.92-.25,2.07-.08,2.3-1.35-5.4-1.49-11.55-2.37-16.79-4.2-1.89-.66-3.78-.85-4.53-2.8l17.32-3-.66-1-21.33-1.66v-1.98c4.45-1.23,9.7-1.54,14-3.01,1-.34,2.38-.4,2.66-1.66l-18.93-4.6-.4-2.73c8.54.07,16.42-3.08,24.66-4.67.16-.94-1.18-.97-1.85-1.13-2.88-.71-16.8-1.24-16.79-3.86,1.32-1.79,14.6-1.61,14.63-3.33-2.9-2.33-10.12-2.46-11.98-5-.1-.14.1-.5,0-.67-.61-1.06-1.42-1.98-1.33-3.32.48-.53,13.96-2.26,12.66-4l-13.33-2.01c-.68-1.15-.64-4.46-.67-6,2.61.09,5.37-.42,7.86-1.15,1.1-.32,3.19-.47,2.8-2.18-.8-.15-1.89.16-2.67,0-1.22-.26-8.2-1.84-8.51-2.15-.75-.76-.48-4.92-2.82-4.51.05-.43-.04-.9,0-1.33,4.87-.09,10.55.45,14.66-2,0-1.01-2.01-1.25-2.82-1.51-3.72-1.17-10.63-2.12-13.66-3.61-1.07-.52-1.09-1.74-2.17-2.21-.48-.9-1.15-2.33-1.33-3.33,10.52-.15,21.03-1.26,31.32-3.33l4,81.93c.35.32-.75.27,1.33,1.33,3.52,1.8,2.33,3.42,4.29,4.71.9.59,2.04.39,2.79.89,2.6,1.72,4.54,4.93,8.24,4.39.54-1.68-.92-2.46-1.33-3.33-.42-.88-.9-1.78-1.33-2.66-.09-.17.08-.48,0-.67-1.33.2-1.48-.9-2-1.33-4.88-7.13-3.45-16.85-3.33-25.31,0-.22,0-.44,0-.67h2c-.35-1.33-.36-2.97-1.33-4,0-.22,0-.44,0-.67-.06-2-.42-4.88-1.33-6.66-.78-10.98-.56-21.21-1.33-31.97.45-3.78-.16-7.54,0-11.32l-1.33-14.65c-.18-.24-.45-.46-.67-.67-2.54-2.42-4.36-3.58-8.3-3.36-1.38.08-4.11,1.46-4.29,1.33-.16-.12-.13-1.19-1.4-1.96-5.36-3.29-37.12-2.6-45.64-3.34-10.77-.93-21.44-3.96-32.33-3.99-7.72-2.29-29.47-.48-39.01-.64-15.17-.25-31.36-1.91-46.62-1.4-4.74.16-7.99,3.22-10.93,3.71-1.83.31-3.48-1.56-7.27-.54-9.35,2.49-6.85,9.7-6.75,16.5.1,6.73,3.45,185.45,3.57,211.45,1.86.7,17.16,8.94,19.05,9.4,24.12,5.88,216.4,115.93,216.4,115.93,3.17.23,192.23-119.28,194.68-120.48-23.12,3.88-28.06-87.85-58.6-43.08-54.27,79.55-194.38,106.06-223.56,96.94-25.21-7.88,25.79,2.01,4.85-14.88-5.53-4.46-50.58-22.9-60.71-25.98-11.56-3.52-109.93-38.48-32.42-64.4,7.66-2.56,11.9-5.73,18.66-7.99,9.29-4.43,20.58-7.79,30.64-10.34,23.56-5.95,52.18-11.9,76.32-14.31,11.36-1.13,22.94-.96,34.31-2.01,2.7-2.66-9.61-4.77-9.99-6.65l64.64-4-14.66,4c6.54.29,13.32-1.92,19.74-3.25,2.91-.6,5.51-.37,8.92-1.41-.4-1.56-1.36-.93-2.6-.7-.21-.42.02-.93-.06-1.3,4.06-4.03,10.15-2.95,5.33-9.33ZM156.07,195.89c6.83.99,14.53-.09,21.32,1.33.16.03.4.56.67.67-7.21,2.61-14.63-.29-21.99-.67.05-.42-.11-1.1,0-1.33ZM116.09,201.22c8.51-.3,16.98.32,25.32,2.01.06.98-2.39,1.17-3.07,1.25-7.2.75-12.17-.9-18.91-1.92-1.22-.18-2.72.14-3.99,0l.66-1.33ZM86.77,207.88c7.14-.08,14.32-.16,21.32,1.33v.67c-7.38,0-14.78.42-21.99-1.33.2-.25.5-.44.67-.67ZM102.76,265.5c0,.58-1.36.44-1.65.32-.52-.21-4.54-8.69-5.02-9.97-1.32-3.53-2.47-8.27-3.33-11.99-.71-3.06-1.89-6.93-2-9.99-1.71-1.2-.92-3.58-1.33-5.31l6.66-.68c.14.05.41.48.67.67,1.32,4.43,3.49,9.4,4.47,13.85,1.06,4.8.33,9.45,1.53,14.13v8.99ZM54.78,264.51c1.44,1.53,3.64,5.58,4.12,7.56.13.55.78,1.82-.45,1.75-.54-.03-6.94-6.31-8.01-7.3-1.39-1.28-2.3-2.98-3.36-4-.91-.88-3.27-.15-3.62-3.34-2.61-1.73-5.86-3.62-8.66-5.33.65-1.4,2.05-.25,2.9.1,4.12,1.65,9.04,3.66,12.42,6.57.19.07.46-.06.67,0,.88.26,1.77,1,2.67,1.33.01.44,0,.89,0,1.33.67.55.82.79,1.33,1.33ZM60.78,297.14c-.52-.06-1.27.15-1.66,0-2.45-.94-.33-3.92,1.66,0ZM39.41,281.52l-2.96-4.35c5.29,2.42,10.71,4.84,15,8.65.56.49.85.85,1.33,1.33,1.68,1.7,2.31,2.75,3.56,4.44.59.8,2.87,1.01,1.43,2.89-2.96.37-2.63-1.3-3.66-2-3.93-2.67-7.6-5.57-11.33-8.66-.86-.71-2.63-1.07-3.38-2.31ZM51.82,345.08c-2.52-3-4.66-7.38-6.71-10.64-.87-1.38-3.71-1.93-2.99-5.32,4.57,2.07,6.87,5.74,9.61,9.72.43.62,2.42,2.75,2.57,3.1.9,2.08.73,4.96,2.47,6.84-.88.67-4.22-2.82-4.95-3.69ZM73.11,336.44c-2.87-1.23-5.32-7.54-7.67-9.99-1.38-1.43-2.95-1.85-3.65-2.67-1.79-2.09.14-2.68-3.68-4.66-3.47-1.8-5.38-3.2-7.99-6.34-.29-1.37.66-1.13,1.62-.96,1.05.18,7.58,4.06,8.77,4.92,5.34,3.84,9.12,10.5,11.89,16.41.17.37,3.15,4.34.71,3.29ZM63.44,241.19h1.33c0,.33,1.22.85,1.54,1.51,1.91,3.98,2.12,2.8,3.18,4.22.18.24,1.86,5.06,1.94,5.59-4.14-1.7-4.18-8.41-8-10.66-.09-.19.11-.57,0-.67ZM69.8,217.24c-11.97.83-25.02-.4-37.01-.7.27-1.33,1.18-1.05,2.1-1.18,3.98-.54,11.34-.77,15.53-.84,7.99-.13,15.77.4,23.68,1.37-.34,1.21-3.28,1.28-4.3,1.35ZM70.41,198.59c-8.52-.37-19.45-1.3-27.8-2.85-1.07-.2-2.82-.61-3.16-1.83,15.15,1.11,30.43.57,45.31,3.99-.09.11.08.66,0,.67-3.8.46-10.35.2-14.35.03ZM79.44,228.54c2.3-.69,3.1.75,4.66,1.33,2.46,6.85,3.27,14.02,3.32,21.31-.89.02-1.43-1.98-1.64-2.67-1.59-5.05-2.24-8.77-4.35-13.98-.84-2.07-2.14-3.86-2-5.99ZM80.44,273.84c2.52-.06,4.76,1,6.99,2,.98.44,1.72.52,2.67,1.33.23.2.49.42.67.67.26.37.42.91.67,1.33,1.92,2.63,4.99,5.88,6.57,8.57.94,1.6,3.64,6.9,4.08,8.43.33,1.16-.58,1.4-1.33.66-.57-.56-.72-1.92-1.32-2.68-1.37-1.75-4.87-4.27-4.67-6.33-1.67-1.21-3.07-2.69-4.66-4l-3.33-4h-.67v-.67c-.23-.02-.48.05-.67,0l-1.33-2h-.67c-.2-.24-.48-.43-.67-.67-.76-.96-1.05-2.03-2.67-2l.34-.66ZM86.76,333.78c-1.17,1.29-6.97-7.55-6.33-9.31,2.76,1.48,3.18,3.31,4.59,5.74.37.63,2.46,1.43,1.74,3.57ZM103.09,331.12c-1.75-3.25-3.84-4.13-5.67-7.32-.9-1.56-2.26-2.89-3.33-4-1.63-1.68-6.49-5.79-7.32-7.67-.78-1.77,2.93-.42,3.49-.14,1.36.68,1.21,1.24,1.84,1.81,1.12,1.03,3.43,2.76,4,3.33,3.44,3.45,7.41,8.94,7,13.99ZM108.1,318.12c-1.03-2.38,5.39,1.05,5.73,1.27.87.58,7.42,8.25,8.01,9.3.52.92.79,2.04.91,3.09l-14.65-13.66ZM139.41,317.8c-.85-.26-2.71-2.21-3.33-3-1.73-2.19-3.63-5.88-5.58-8.08-2.17-2.43-9.48-7.54-9.75-9.91-.12-1.06-.08-1.12,1.01-1.01,2.9,1.56,5.62,3.48,8.32,5.34,2.49,2.73,4.88,6.85,6.79,10.19,1.09,1.9,2.69,4.19,2.53,6.46ZM170.06,317.79l.83-1.5,11.83-2.82c-6.36-3.8-15.58-2.62-21.99-6.33-1.43-1.77-2.4-.57-1.33-3.33,3.74-1.24,8.01-.59,11.74-1.92.95-.34,1.13.19.92-1.41l-23.32-2c-.26-.4-.47-.89-.67-1.33l-.67-1.33c.08-.21-.1-.57,0-.67,3.46-.54,8.56-.78,11.74-1.92.95-.34,1.12.19.93-1.4-6.94-2.4-22.53-1.41-28.22-4.77-1.95-1.15-3.24-8.76-5.19-11.5-.74-1.04-1.72-.87-1.92-1.05-.14-.13.01-1.22-.66-1.69-.56-.39-1.22.31-2-.31-2.71-2.16-5.35-4.67-7.33-7.33-1.22-1.64-2.1-3.66-3.33-5.33l-.12-.64.11-.03c.33-.9.04-1.15-.36-1.27l-5.62-29.99s.05-.03.08-.04l7.95-.36,2.63,3.69c.02.22-.03.45,0,.67.57,4.67,1.47,11.7,2.67,16.65.43,1.79,1.75,4.99,2.67,6.66,1.82,1.19,1.25.64,1.33-.99.36-7.36-1.02-14.76-.67-22.33.05-1.11-.04-2.23,0-3.33,3.78-.25,7.54-.1,11.33,0,.09,0,.75.67,1.61.69,6.14.2,13.09-.46,19.04-2.03.08-.18-.06-.46,0-.67-5.45.38-10.8-1.19-15.99-2.66-.51-.14-1.44.19-2.18-.01-.56-.15-.54-1.01-.98-1.3-2.16-1.46-2.24-.04-2.84-3.35,5.32.01,10.67-.01,15.99,0,.22,0,.44,0,.67,0,3.03.04,13.33-.6,15.04.62.58.41.99,1.36,1.32,2.02l.35,20.91,2.59,24.05c-1.43,5.17-5.66,6.83-10.34,8.33l-18.95,4.03c7.16.95,26.7-.49,31.58,4.74,1.08,1.15,2.2,3.7,3.07,5.26,1.29,2.33.89,2.48,1.69,4.64.73,1.97,3.82,4.16,4.3,6.69.22.22.43.46.67.67.52.28,3.02,1.38,3.14,1.5.43.43.11,1.06.19,1.16.18.24.51.42.67.67,5.52,2.18,9.72,6.21,13.99,9.99.24.21.44.46.67.67.72.66,1.01,1.03,1.33,1.33,1.26,1.19,3.57,1.36,4,4.66-11.44.12-22.82-1.04-33.99-3.33Z"/>
        <path class="st7" d="M161.4,263.5c.58-1.5-1.54-.94-2.33-.99-3.33-.22-7.53-.82-10.7-.71-3.99.14-7.75,1.43-11.63,2.04.02.24-.06.53,0,.67,8.14,1.13,16.74,1.48,24.66-1.01Z"/>
        <path class="st7" d="M156.07,239.19c.22-.49,1.22-1.01,1.33-1.33-4.63-.9-10.26-.97-15.03-.71-2.52.14-4.24,1.63-6.96.71-.16,1.81.19,1.96.67,3.33l19.99-2Z"/>
        <path class="st7" d="M158.73,249.86c-7.68-.61-15.07,1.1-22.65,1.33v3.32c6.33-1.44,15.48-.53,21.2-3.15.95-.43,1.82.4,1.46-1.51Z"/>
      </g>
    </g>
  </g>
  <g>
    <path class="st2" d="M378.7,402.99c9.18,24.25-2.4,37.1,21.51,53.87-4.68-3.28,99.36,16.31,126.08,27.28-7.48-25.41-7.34-84.43-53.66-110.21,30.35,16.89,50.07-32.05,75.51-48.87,5.56-2.9,8.88-2.76,16.95-10.01-14.78-8.18-78.81-27.95-110.72-11.9,4.93-26.27-31.33-81.11-36.45-92.97-18.58,21.58-51.43,38.05-68.06,59.44-16.64,21.39-22.9,43.81-12.63,64.98-34.76-.63-41.71-14.53-77.06,36.42-9.62,13.86-27.42,40.84-41.22,51.71,23.65,5.42,106.09,25.71,124.92,20.4,18.83-5.31,20.09-32.89,34.83-40.14Z"/>
    <g>
      <path class="st2" d="M384.55,382.91c-.57-.54-1.16-1.07-1.75-1.6-.23.02-.47.05-.7.06-5.15,1.46-10.17,3.37-15.07,5.53-6.41,3.45-22.55,29.56-23.16,56.23-.61,25.73,17.24,45.52,39.51,67.63,6.01-24.96,24.71-46.23,22.11-73.58,1.53.68-17.44-49.62-20.93-54.27Z"/>
      <path class="st3" d="M372.84,413.76c-6.17,10.96-11.67,22.63-12.54,34.68.49.3.43-.41.54-.71.82-2.18,1.38-4.39,2.38-6.55,1.93-4.19,4.49-8.22,6.51-12.38.42,5.18-.54,10.44-.69,15.65-.37,13.48,3.79,25.9,7.49,38.52.98-3.63.67-7.36,1.01-11.04,1.14-12.22,4.08-24.4,1.15-36.38l.37-.33c3.77,8.06,6.97,16.84,7.15,25.88.48.29.56-.45.64-.74,3.23-11.52-1.66-26.91-7.31-36.66-.54-.93-6.07-10.19-6.71-9.95Z"/>
    </g>
    <g id="peI3sh">
      <g>
        <path class="st2" d="M438.01,384.66c-12.07-5.92-28.34-8.53-42.01-10.03-1.79-.2-3.6-.38-5.4-.55-1.83,1.01-5.74,3.11-6.59,4.78-.2.4-.03,1.25-.07,1.75,1.7,1.24,3.43,2.75,4.78,4.29.22.25.25.55.28.59,3.84,3.22,6.67,7.27,9.77,11.02,2.94,3.56,5.76,7.2,8.81,10.69,1.82,2.09,3.31,3.91,5.38,5.88.29.27.7.46.99.73,4.2,3.85,7.44,6.17,12.19,9.37.6.4,1.13.89,1.74,1.28.26.17.48.38.74.55.17.11.32.25.5.37,2.84,1.82,6.03,3.72,8.83,5.37.09.05.16.13.25.18,2.65,1.17,6.34,2.64,8.72,4.15.17.11.32.25.5.37.86.43,1.8.79,2.66,1.2,1.14.54,2.3,1.15,3.41,1.75.28-.22-.01-.33-.04-.4-.37-.67-1.74-.9-2.07-1.15l-4.47-3.29c-.49-.36-1.77-.95-2.57-1.51-.17-.12-.33-.25-.5-.37-11.78-8.28-22.07-16.16-30.89-26.98-4.61-5.65-8.84-11.48-13.77-17.02-1.21-1.36-2.35-2.79-3.82-3.97l3.86,1.71c.63.56,1.46.83,2.2,1.24.45.25.8.65,1.24.92.07.04.53.06.96.33,2.38,1.45,4.47,2.86,6.66,4.53.96.01,1.91,1.04,2.69,1.61,16.94,12.36,33.79,24.85,50.61,37.33,3.21,2.38,6.54,4.69,9.68,7.14.55.43,1.25.83,1.74,1.28l1.2.51c-5.44-5.81-10.53-11.94-16.14-17.63-2.83-2.88-5.87-5.68-8.86-8.44-.68-.62-1.33-1.25-2.02-1.87-5.42-4.88-11.08-9.65-17.22-13.85-.17-.12-.33-.25-.5-.37-.76-.51-1.5-.79-2.2-1.24-.17-.11-.32-.25-.5-.37-2.79-1.8-5.71-3.48-8.58-5.19-4.42-2.63-8.83-5.24-13.44-7.63-1.7-.88-3.45-1.68-5.1-2.63,1.16-.29,2.35.19,3.51.31,7.33.76,14.44,2.4,21.33,4.68,2.63.87,5.64,1.9,8.16,2.97,1.95.83,3.97,1.78,5.82,2.77,3.28,1.76,5.67,3.43,8.61,5.59.08.06.17.12.25.18.61-.18,1.15.47,1.58.78,7.41,5.33,12.48,10.99,19.1,16.76.65.57,1.43,1.01,2.1,1.56.03-.09.22-.16.21-.22-3.19-3.82-5.86-7.91-9.13-11.69-1.15-1.32-2.35-2.52-3.58-3.78-1.35-1.4-2.63-2.81-4.07-4.15-.15-.14-.35-.23-.5-.37-5.01-4.57-10.69-8.7-17.05-11.81Z"/>
        <path class="st2" d="M372.18,370.79c-.41-.28-1.22-.68-1.7-.87-.59.87-3.14-.5-4.01-.67-17.1-3.41-35.04-3.49-51.98,1.29-3.78,1.48-7.58,2.96-11.23,4.67-3.52,1.65-7.03,3.45-10.35,5.41-3.24,1.9-7.49,4.42-10.37,6.65-.27.21-1.01.58-.51.86,1.75-1.33,4.01-1.94,6.04-2.78,4.27-2.43,9.03-4.2,13.68-5.91,16.47-6.07,32.14-8.57,49.76-6.9,2.37.22,8.68.82,10.59,1.5.16.06.46.24.26.38-13.42,2.47-26.89,4.11-39.72,8.75-3.11,1.12-6.27,2.43-9.34,3.66-5.54,2.7-11.22,5.16-16.78,7.82-6.27,3.01-12.44,6.18-18.63,9.31l-5.32,3.13c11.88-3.27,23.5-7.3,35.23-10.98,3.8-1.44,7.67-2.76,11.51-4.08,10.64-3.66,21.32-7.14,32.31-9.83l15.66-3.19c-8.19,4.76-15.62,10.45-23.95,15.02-5.09,2.79-10.31,5.08-15.79,7.11l-8.1,3.17-23.38,6.77c18.22-1.31,36.6-5.46,52.54-13.84,2.1-1.1,4.21-2.17,6.22-3.41,1.58-.97,3.11-2.02,4.62-3.07.8-.55,1.56-1.16,2.42-1.65.08-.07.13-.16.21-.22l5.55-3.15c.08-.06.13-.16.21-.22,3.1-2.14,6.14-4.28,9.74-5.77.12-.72.49-1.68.4-2.39-.2-1.6-4.28-5.51-5.81-6.56Z"/>
        <path class="st2" d="M382.11,348c.7,3.71,1.18,8.04,2.03,11.6.08.36-.1.67.43.88,1.22-.57.59-1.45.86-1.82,3.93-5.37,9.96-10.69,13.75-16.16.57-.82.83-2.55,1.38-3.6,1.95-3.77,4.85-7.7,9.58-8.73l2.96-6.2c2.81-8.34,5.77-16.47,7.07-25.1,1.42-9.41,1.08-18.91.61-28.32l-.68,2.52c-1.36,15.86-4.98,31.04-11.6,45.98-2.18,4.93-4.61,9.92-7.85,14.41-.06.08-.15.14-.21.22-.74,1-1.2,2.23-1.82,3.23-2.64,4.3-6.03,9.33-9.11,13.4-.2.27-.44.98-.86.59,2.62-6.5,4.36-13.2,6.11-19.89,5.83-22.25,9.01-43.66,11.02-66.3.37-4.21.68-8.45.76-12.66-4.18,11.98-8.14,24.1-11.23,36.32-4.82,19.01-6.95,38.45-12.25,57.4l-.94,2.23Z"/>
        <path class="st3" d="M448.81,341.93l8.86-9.28c3.58-2.99,7-6.35,11.38-8.38l-.39-.47c-6.9,2.77-13.22,6.6-18.95,11.04-6.49,5.02-14.42,11.54-18.68,18.17-.2.3-.27.48-.17.83,16.78,2.27,34.26,1.71,49.75-5.61l5.12-2.69c-4.56,1.1-9.28,2.35-13.93,3.07-5.27.81-10.84.91-16.14,1.63l-3.76-.5c13.49-2.89,26.71-7.95,38.53-14.55,6.07-3.39,11.82-7.28,17.94-10.6,3.34-1.82,6.87-3.27,10.14-5.19-.53-.14-1.19-.01-1.74.06-21.57,3-43.52,9.97-62.24,20.19l-5.74,2.26Z"/>
        <path class="st2" d="M374.63,314.66l.07.81c0,.14.03.27.03.41l.03.41c0,.14.03.27.03.41l.03.41c0,.14.02.27.03.41.06.8.1,1.65.21,2.44.02.13.02.27.03.41l.07.81c.06.34.08,1.16.1,1.22.1.29.29.56.53.77.81.74,1.8.92,2.56,1.5,2.24,1.71,3.02,4.69,3.06,7.22.66-.62.6-1.45.63-2.21.21-5.99-1.53-12.81-1.63-19.11-.25-15.5,3.01-30.2,8.87-44.92-.42-.4-.52.31-.68.57-.34.56-.66,1.15-.97,1.73-7.94,14.68-13.21,30.54-13.03,46.72Z"/>
        <path class="st2" d="M383.75,375.51c.95-.07,2.92-5.23,3.45-6.14,4.43-7.7,10.58-16.25,16.49-23.16,1.2-1.41,1.99-1.67,2.39-1.97.63-.46,2.59-.41,3.45-.66,2.17-.63,3.33-1.99,4.7-3.52,0,0,.71-4.57-1.52-5.68-2.36-1.18-5.37,2.51-6.66,4.05-1.91,2.28-2.55,5.03-4.39,7.1-6.9,7.76-12.93,15.35-18.07,24.16-.41.71-2.29,4.15-1.86,4.65l2.02,1.17Z"/>
        <path class="st2" d="M371.99,335.57l1.37.6c.66,3.84,1.65,7.63,2.34,11.47.66,3.73,1.55,8.62,1.75,12.34.21,4.01-.62,9.41.4,13.28.13.48.1.79.69,1.06,1.22-.1,1.57-9.46,1.54-10.68-.08-3.44-.49-7.76-.95-11.18-.57-4.23-2.55-9.74-2.58-13.7-.02-3.69,2.92-9.01-1.43-11.56-2.94-1.72-6.11,1.62-5.94,4.22.12,1.86,1.57,2.84,2.81,4.15Z"/>
        <path class="st2" d="M367.16,336.2l4.58,12.91s.33-.24.31-.43c-.29-2.15-1.31-8.66-2.1-10.38-.47-1.03-1.85-1.29-2.79-2.1Z"/>
        <g>
          <path class="st5" d="M375.18,321.16l-.05-.58c0-.08,0-.16-.02-.24-.02-.13-.02-.27-.03-.41-.1-.79-.15-1.64-.21-2.44,0-.14-.03-.27-.03-.41,0-.14-.03-.27-.03-.41,0-.14-.03-.27-.03-.41l-.03-.41c0-.14-.03-.27-.03-.41,0-.08-.01-.17-.02-.26l-.05-.55c-.18-16.17,5.08-32.03,13.03-46.72.31-.57.63-1.17.97-1.73.16-.26.25-.97.68-.57-5.85,14.72-9.11,29.42-8.87,44.92.1,6.3,1.84,13.12,1.63,19.11-.03.76.02,1.59-.63,2.21.04,2.42-1.09,4.61-1.18,6.76-.1,2.23,1.38,6.87,1.85,9.36l.94-2.23c5.3-18.95,7.43-38.39,12.25-57.4,3.1-12.21,7.06-24.34,11.23-36.32-.08,4.21-.38,8.45-.76,12.66-2.01,22.64-5.2,44.05-11.02,66.3-1.75,6.69-3.49,13.4-6.11,19.89.42.39.66-.32.86-.59,3.08-4.07,6.47-9.1,9.11-13.4.62-1.01,1.08-2.24,1.82-3.23.06-.08.15-.14.21-.22,3.24-4.5,5.66-9.48,7.85-14.41,6.62-14.94,10.24-30.12,11.6-45.98l.68-2.52c.47,9.41.81,18.9-.61,28.32-1.3,8.63-4.25,16.76-7.07,25.1l-2.96,6.2c.84-.18,1.46-.23,2.31-.2,1.7.44,4.38,1.31,5.23,2.82.04.08-.19.37-.11.56,1.46,3.4,1.1,6.56-1.46,9.61-3.45,4.1-6.47,3.32-8.96,5.39-1.92,1.59-6.51,7.47-7.91,9.61-1,1.53-1.74,3.26-2.85,4.76l-1.8,1.53-1.16,2c5.94-3.91,12.29-7.32,18.1-11.42.56-.4,1.15-.95,1.74-1.38,11.79-8.58,23.75-19.49,28.88-32.44.21-.53.31-1.74.5-2.3,3.61-10.73,3.93-20.93.58-31.59-.61-3.37-1.85-6.86-3.22-10.06-2.11-4.93-4.95-10.56-7.76-15.19-4.18-6.87-9.22-13.2-12.56-20.5-2.66-5.81-3.34-11.27-5.27-17.05.53-.86.32-1.51-.93-1.2l-3.48,4.05c-.14.15-.28.3-.43.45-3.92,4.07-7.45,8.46-11.5,12.48-.07.07-.14.15-.21.22-.01.01-.02.02-.04.04.02-.02.04-.04.04-.04,0,0-4.9,3.79-7.19,5.75-1.67,1.43-3.33,2.89-4.98,4.33-3.6,3.14-7.4,6.27-10.82,9.55h0c-.37.36-.7.76-1.07,1.12.07.02.14.02.21.01-.07,0-.14,0-.21-.01-9.54,9.34-16.52,18.47-20.67,30.49-1.79,5.19-3.14,10.86-3.27,16.26-.02.91.24,2.31.28,3.25.06,1.63.2,3.26.41,4.88.93,7.07,2.79,14.13,5.49,20.82,3.96,9.82,9.69,17.41,16.73,25.67.11.13.34.36.46.16-.12-1.33-.32-2.63-.45-3.95-.03-.26-.05-.55-.07-.81-.06-.8-.13-1.64-.21-2.44-.2-2.12-.5-4.16-.77-6.28l-4.58-12.91c-1.58-1.38-2.28-3.59-2.33-5.53.91-2.55,1.42-4.57,4-6.28,2.35-1.56,4.29-1.32,6.99-1.24-.24-.22-.44-.48-.53-.77-.02-.06-.05-.88-.1-1.22ZM397.74,240.44c-.18.17-.32.31-.42.42.14-.14.31-.31.42-.42Z"/>
          <path class="st5" d="M499.99,460.12h0c-1.05-4.2-2.71-8.25-3.68-12.48-3.21-13.92-4.27-27.92-8.82-41.72-1.99-6.04-5.48-14.44-9.79-19.42-.17.12-.26.22-.3.31-.13.28.2.48.41.8.49.72.96,1.43,1.41,2.12-.45-.69-.92-1.4-1.41-2.12-.21-.32-.54-.52-.41-.8.04-.09.14-.19.3-.31-.33-.38-.69-.76-1.03-1.14-1.39-1.55-2.98-3.13-4.66-4.71,1.68,1.57,3.27,3.16,4.66,4.71-4.48-5.78-10.32-10.69-16.83-14.7t0,0c-1.01-.74-3.2-1.9-4.4-2.48-7.85-3.8-17.26-5.33-26.19-4.46-.87-.4-2.2-.17-3.14-.04-11.32,1.58-25.57,4.93-35.51,10.4,1.79.17,3.6.35,5.4.55,13.67,1.5,29.94,4.11,42.01,10.03,6.35,3.12,12.04,7.25,17.05,11.81.15.13.35.23.5.37h0c1.45,1.34,2.72,2.75,4.07,4.15.42-.12.6-.18.63-.24-.03.06-.21.12-.63.24,1.22,1.26,2.43,2.46,3.58,3.78h0c3.27,3.78,5.95,7.87,9.13,11.69,0-.09,0-.17-.02-.24,0,.08.01.16.02.24,0,.07-.18.13-.21.22h0c-.67-.54-1.46-.99-2.1-1.56-6.61-5.77-11.69-11.43-19.1-16.76-.42-.31-.97-.96-1.58-.78-.08-.06-.17-.12-.25-.18h0c-2.94-2.16-5.33-3.84-8.61-5.59-1.85-.99-3.87-1.93-5.82-2.77-.06.39-.1.55-.16.59.06-.03.1-.19.16-.59-2.51-1.07-5.52-2.1-8.16-2.97h0c-6.89-2.28-14-3.92-21.33-4.68l-1.01.4,1.01-.4c-1.16-.12-2.35-.6-3.51-.31,1.65.94,3.41,1.75,5.1,2.63-.01-.11-.05-.2-.1-.29.04.09.08.18.1.29,4.61,2.39,9.01,5,13.44,7.63h0c2.87,1.7,5.79,3.39,8.58,5.19.17.11.32.25.5.37h0c.69.45,1.44.73,2.2,1.24.17.12.33.25.5.37,6.14,4.2,11.8,8.97,17.22,13.85.31-.23.38-.38.33-.5.05.12-.02.27-.33.5.69.62,1.34,1.25,2.02,1.87h0c2.99,2.75,6.02,5.56,8.86,8.44,5.61,5.69,10.7,11.82,16.14,17.63l-1.2-.51h0c-.49-.45-1.19-.85-1.74-1.28h0c-3.14-2.45-6.47-4.76-9.68-7.14-.01.07-.01.14,0,.2-.01-.06-.02-.13,0-.2-16.82-12.48-33.67-24.97-50.61-37.33-.78-.57-1.73-1.59-2.69-1.61-2.2-1.67-4.29-3.08-6.66-4.53,0,.42.29.73.68.99-.39-.26-.68-.57-.68-.99-.43-.26-.89-.28-.96-.33-.44-.26-.79-.66-1.24-.92h0c-.73-.41-1.57-.68-2.2-1.24l-3.86-1.71c1.47,1.17,2.61,2.6,3.82,3.97,4.92,5.53,9.16,11.37,13.77,17.02h0c8.82,10.82,19.12,18.7,30.89,26.98.17.12.33.25.5.37h0c.8.56,2.08,1.15,2.57,1.51l4.47,3.29c.33.25,1.7.48,2.07,1.15-.05-.17-.15-.34-.27-.51.12.17.22.34.27.51.02.07.32.18.04.4-1.11-.6-2.26-1.2-3.41-1.75l-.09.31.09-.31c-.86-.41-1.8-.77-2.66-1.2-.17-.11-.32-.26-.5-.37-2.38-1.51-6.07-2.98-8.72-4.15-.09-.05-.16-.13-.25-.18h0c-2.8-1.65-5.99-3.55-8.83-5.37.01.09.04.18.09.27.13.27.38.51.66.74-.28-.23-.53-.47-.66-.74-.04-.09-.07-.18-.09-.27-.17-.11-.32-.25-.5-.37-.26-.17-.49-.38-.74-.55h0c-.6-.39-1.14-.88-1.74-1.28-4.75-3.21-7.99-5.53-12.19-9.37l-1.17-.1,1.17.1c-.29-.27-.7-.46-.99-.73-.41-.11-.82-.32-1.21-.58.39.26.8.47,1.21.58-2.07-1.97-3.56-3.79-5.38-5.88h0c-3.05-3.49-5.87-7.14-8.81-10.69-3.1-3.76-5.93-7.8-9.77-11.02-.03-.04-.06-.34-.28-.59-1.35-1.54-3.09-3.05-4.78-4.29-.16,2.24.21,4.14.3,6.32,0,.14.03.27.03.41.05,1.07.22,2.16.28,3.25.08,1.75-.4,6.67.23,8.17h0l.24,2.85c0,.14.03.27.03.41.04.56.09,1.07.14,1.63.03.27.04.53.07.81.01.14.02.27.03.41l.46-.04h0l-.46.04c1.03,8.15,4,15.54,9.1,22.34h0c.16.22.2.49.28.59,4.99,6.41,11.97,11.86,19.49,15.9,1.47.79,3.08,1.56,4.61,2.26,10.65,4.82,23.17,7.06,35.09,7.98.19.03.49.26.83.31,4.4.66,8.87,1.2,13.29,1.72,11.14,2.11,21.98,5.2,32.6,8.76,1.84-.56-.03-3.7-.62-4.6ZM405.88,368.39c-1.08.33-2.16.68-3.23,1.04-.83.28-1.65.57-2.46.88.82-.31,1.64-.6,2.46-.88,1.07-.36,2.15-.71,3.23-1.04,6.5-1.99,13.22-3.43,19.99-4.29-6.77.86-13.5,2.3-19.99,4.29ZM406.4,383.05s.06.08.09.11c-.03-.04-.06-.08-.09-.11ZM427.04,386.72c-.14-.03-.28-.07-.38-.13.1.06.24.1.38.13ZM430.51,397.02c-.29-.19-.6-.37-.81-.56.21.2.51.38.81.56.15.09.29.19.42.29-.13-.1-.27-.2-.42-.29ZM431.19,397.54c.05.05.1.11.14.17-.04-.06-.08-.11-.14-.17ZM457.95,404.37c-2.32-1.95-4.72-3.84-7.15-5.67,2.43,1.83,4.83,3.72,7.15,5.67ZM472.19,417.1c-.04.07-.12.14-.25.22.13-.08.21-.15.25-.22s.04-.13.03-.18c.01.05,0,.12-.03.18ZM397.36,385.16c.39.24.72.52,1.03.83-.31-.31-.64-.59-1.03-.83ZM402.51,387.83c.17.11.33.21.44.32h0c-.12-.11-.28-.22-.44-.32ZM384.3,382.84c-.04.2-.05.41-.04.62-.01-.21,0-.42.04-.62ZM384.76,381.97h0c.15-.01.34.09.56.26-.22-.17-.41-.27-.56-.26ZM385.54,382.43c.16.14.32.31.5.49-.17-.18-.34-.35-.5-.49ZM386.57,383.47c.18.19.37.38.56.55-.19-.18-.38-.36-.56-.55ZM407.41,407.72c.13.61,1.05,1.42,1.33,1.74.13.15.28.32.42.49.44.51.94,1.09,1.48,1.61-.54-.52-1.04-1.1-1.48-1.61-.15-.17-.29-.34-.42-.49-.28-.32-1.2-1.14-1.33-1.74ZM395.12,427.4c-.14-.15-.29-.26-.5-.25.2,0,.36.1.5.25.09.1.17.22.24.33-.07-.11-.15-.23-.24-.33ZM409.88,440.7c-.54-.29-1.05-.57-1.5-.88-1.3-.88-2.5-1.77-3.64-2.69,1.14.92,2.34,1.81,3.64,2.69.45.3.96.59,1.5.88.8.43,1.65.86,2.42,1.34-.76-.48-1.62-.91-2.42-1.34ZM449.92,437.27h0c-.15-.13-.32-.23-.5-.33.18.09.34.2.5.33ZM447.81,436.14c.32.23.7.39,1.07.55-.37-.16-.74-.32-1.07-.55-.25-.18-.32-.47-.35-.61.03.14.1.43.35.61ZM443.39,433.88c-1.17-.62-2.31-1.28-3.46-1.94,1.14.67,2.28,1.32,3.46,1.94ZM430.77,426.99c-.19-.11-.39-.24-.59-.38.2.14.41.27.59.38ZM415.42,416.04c-.18-.15-.34-.31-.5-.47.16.16.32.33.5.47.96.78,1.92,1.55,2.9,2.3-.98-.75-1.94-1.51-2.9-2.3ZM500.63,462.51c-.06-.36-.16-.73-.25-1.07.09.34.19.71.25,1.07ZM487.29,405.94c-.12-.03-.23-.15-.32-.3.09.16.2.27.32.3ZM413.2,394.58c.15.16.37.3.57.43-.2-.13-.41-.27-.57-.43-.1-.11-.18-.22-.21-.35.03.13.1.24.21.35ZM404.73,389.11c.29.15.6.27.87.38-.27-.11-.58-.24-.87-.38ZM412.32,394.29l.21-.22-.21.22-6.08-4.48,6.08,4.48ZM413.19,404.63c.14,0,.27.04.38.11-.11-.07-.24-.11-.38-.11ZM442.21,430.09c-3.88-2.66-7.68-5.49-11.32-8.48,3.64,2.99,7.43,5.82,11.32,8.48.13.09.36.19.61.29-.26-.11-.49-.21-.61-.29ZM444.09,431.4s.03-.08.03-.12c0,.04,0,.08-.03.12ZM451.46,436.09c.47.28.91.58,1.27.9-.35-.32-.8-.62-1.27-.9ZM447.64,420.37c-5.57-4.16-11.17-8.34-16.77-12.52,5.6,4.19,11.2,8.36,16.77,12.52,4.61,3.44,9.26,6.85,13.9,10.25-4.65-3.4-9.29-6.8-13.9-10.25Z"/>
          <path class="st5" d="M374.52,381.66c-2.27,1.2-4.24,2.91-6.67,3.84-.09.06-.13.16-.21.22l-5.55,3.15c-.08.07-.13.16-.21.22-.02.01,0,.11,0,.22,0,.11-.01.23-.1.31.08-.07.1-.2.1-.31,0-.11-.02-.21,0-.22-.86.49-1.62,1.09-2.42,1.65l.49.36h0l-.49-.36c-1.52,1.05-3.05,2.1-4.62,3.07h0c-2.01,1.24-4.12,2.31-6.22,3.41h0c-15.95,8.38-34.32,12.53-52.54,13.84l23.38-6.77s-.07-.09-.07-.14c0,.04.03.09.07.14l8.1-3.17c5.48-2.03,10.7-4.32,15.79-7.11,8.34-4.57,15.77-10.27,23.95-15.02l-15.66,3.19c-10.98,2.69-21.67,6.17-32.31,9.83h0c-3.85,1.32-7.72,2.64-11.51,4.08-11.74,3.68-23.35,7.71-35.23,10.98l5.32-3.13c6.19-3.13,12.36-6.31,18.63-9.31l3.2-2.03c2.24-1.03,4.5-2.02,6.76-2.99-2.27.96-4.52,1.96-6.76,2.99l-3.2,2.03c5.56-2.67,11.24-5.13,16.78-7.82,3.07-1.23,6.23-2.53,9.34-3.66,12.84-4.64,26.3-6.27,39.72-8.75.2-.14-.1-.32-.26-.38-1.91-.68-8.22-1.28-10.59-1.5-17.62-1.67-33.3.83-49.76,6.9-4.66,1.72-9.41,3.48-13.68,5.91,2.07-.85,4.13-1.72,6.2-2.57-2.07.85-4.13,1.72-6.2,2.57-2.03.84-4.29,1.45-6.04,2.78-.5-.28.24-.65.51-.86,2.88-2.23,7.13-4.75,10.37-6.65,3.33-1.96,6.84-3.75,10.35-5.41h0c3.65-1.72,7.45-3.2,11.23-4.67,0,0,0,0,0,0,16.94-4.78,34.88-4.71,51.98-1.29.87.17,3.42,1.54,4.01.67-.28-.11-.59-.21-.92-.3.33.09.64.19.92.3h0c.49.2,1.29.59,1.7.87-.29-.67-1.17-1.46-1.74-2-10.14-9.54-24.3-18.67-39.18-21.14-1.34-.22-2.96-.5-4.33-.33-3.54-.48-6.86-.46-10.47-.1-10.62,1.04-20.69,5.24-28.79,11.54-.19.43-.49.83-.84,1.22-.36.39-.78.75-1.22,1.11.44-.36.86-.72,1.22-1.11.36-.39.65-.79.84-1.22-6.72,5.23-13.28,12.86-18.17,19.52-.72.99-1.6,2.23-1.98,3.35l-.21.22c0,.14-.01.28-.05.42.04-.14.06-.28.05-.42l-14.21,18.86-7.97,8.81-8.53,7.59,1.58.95c5.15-.02,10.36-.03,15.49.21,8.71.41,67.82,10.72,77.67,8.12h0c6.52-1.2,13.71-3.92,19.25-7.44,3.38-2.15,5.83-4.34,8.58-7.09.22-.22.43-.45.64-.67.78-.81,1.62-1.62,2.35-2.46-.11-.05-.19-.1-.26-.15.06.05.15.1.26.15,5.95-6.86,13.99-20.53,15.45-29.01-3.6,1.5-6.64,3.63-9.74,5.77,2.43-.93,4.39-2.65,6.67-3.84ZM319.71,403.81c.13-.07.28-.12.41-.17-.13.05-.28.1-.41.17ZM325.82,401.75c-1.18.41-2.39.81-3.6,1.21,1.21-.4,2.43-.8,3.6-1.21ZM344.56,352.14c4.54,1.92,8.8,4.27,12.86,6.96,4.06,2.69,7.91,5.72,11.63,8.98.01.03.04.07.07.1-.02-.03-.05-.07-.07-.1-3.72-3.26-7.57-6.29-11.63-8.98-4.06-2.69-8.32-5.05-12.86-6.96-2.72-1.15-5.54-2.14-8.47-2.95,2.93.81,5.75,1.8,8.47,2.95ZM262.41,389.31c.95-1.33,1.89-2.66,2.8-3.95-.91,1.29-1.85,2.62-2.8,3.95ZM354.89,394.02c0,.13-.04.24-.13.34.08-.1.13-.21.13-.34ZM357.47,412.69c.49-.51,1.01-.98,1.65-1.27-.64.29-1.17.75-1.65,1.27ZM363.02,388.9c-.15.12-.28.23-.42.25.15-.02.28-.13.42-.25ZM376.09,383.67c.36-.9.74-1.8,1.14-2.68-.01-.01-.02-.02-.04-.03.01.01.03.02.04.03-.4.88-.78,1.78-1.14,2.68Z"/>
        </g>
      </g>
    </g>
  </g>
  <g>
    <path class="st2" d="M359.13,461.49v-2.68c-14.87-2.28-7.83-12.71-17.13-20.33-40.58-28.53-104.13,6.86-117.28,48.11,5.65,10.6,46.36,18.36,59.04,12.92,18.31-12.17,82.17-11.74,75.37-38.01Z"/>
    <path class="st1" d="M336.14,450.13c-4.39.74-9.06,1.25-13.45,1.85-13.79,1.88-27.66,4.68-40.14,11.05-7.8,3.88-15.41,9.11-23,13.42-5.19,2.79-10.48,5.95-16.41,7.04-2.43.44-4.73.56-7.03.65-1.24.07-1.89-1.6-.88-2.36,2.03-1.61,4.24-3.1,5.93-4.52,4.83-4.4,8.61-9.4,13.48-14.06,6.78-6.87,14.38-13.32,23.09-17.7,13.65-7.15,30.05-8.87,44.82-4.42,4.88,1.49,9.5,3.47,13.77,6.4,1.23.62,1.24,2.29-.19,2.65h0Z"/>
    <path class="st1" d="M348.88,468.22c-11.56,2.39-22.86,5.72-34.02,9.55-10.52,3.56-23.2,8.58-33.88,11.46-5.87,1.52-12.16,2.86-18.32,1.9-2.1-.33-4.18-.99-6.08-2.02-.6-.33-.82-1.08-.49-1.68.21-.38.58-.6.97-.64,4.21-.24,7.6-1.69,11.18-3.47,16.98-9.14,34.21-19.7,54.27-21.53,8.8-.67,17.62-.09,25.97,3.79,0,0,.67.32.67.32,1.03.48.86,2.09-.28,2.31h0Z"/>
  </g>
</svg>