<?xml version="1.0" encoding="UTF-8"?>
<svg id="Layer_1" xmlns="http://www.w3.org/2000/svg" version="1.1" viewBox="0 0 528.08 562.67">
  <!-- Generator: Adobe Illustrator 29.8.1, SVG Export Plug-In . SVG Version: 2.1.1 Build 2)  -->
  <defs>
    <style>
      .st0 {
        fill: #324c33;
      }
    </style>
  </defs>
  <g>
    <path class="st0" d="M144.34,158.82c-3.71-.99-29.62-29.01-17.15-21.68,4.34,2.08,26.55,6.54,21.05-2.78-10.97-8.88-20.64-11.63-29.5-25.09-12.7-20.05,9.45,6.98,22.22-1.98,5.57-4.05-23.11-13.74-25.56-30.63,32.78,14.02-2.48-15.9-4.24-33.08-3.29-36.39-9.09,12.33-16.39,18.11-3.84,3.51-15.21,9.38-15.32,14.96,5.84,2.14,11.46-1.28,17.3-1.52-3.21,15.91-52.91,40.58-5.32,30.32-8.17,13.57-20.19,21.65-33.26,27.64,2.62,7.91,8.33,4.71,13.96,3.46.78,2.15-3.24,5.48-3.23,6.53,2.32,6.63,15.98-6.02,19.21-6.52-4.08,20.02-38.16,26.49-33.83,35.17,6.51,1.92,12.99-1.56,19.19-3.69-1.81,6.23-14.25,8.75-9.01,13.07,6.73,5.12,14.4-4.44,20.98-5.39.28,4.03-6.24,5.99-4.01,9.61,2.37,1.81,10.16-1.48,12.6-3.16,1.12-.77,5.05-6.09,6.05-4.92v22.25c20.48,6.55,11.85-11.66,13.99-26.09,6.88,8.69,17.28,13.33,27.26,10.38-1.92-9.03-10.35-9.92-11.96-18.83,8.67,8.3,38.19,5.09,14.95-6.12Z"/>
    <g id="_x37_r4zLB.tif">
      <g>
        <g>
          <path class="st0" d="M253.99,311.67c-3.75.15-43.23-6.69-44.14-7.28-1.96-1.29-.48-5.15-4.01-6.95,2.1,1.11-3.82-81.8-3.28-83.37-7.52,4.09-31.47-.82-29.99,6.66,3.59,5.38,14.06,3.34,18.66,7.33-3.48,3.52-13.03-.09-14.66,3.33,2.34-.41,2.07,3.75,2.82,4.51,1.73.76,8.69,2.43,11.17,2.15-.91,3.47-7.55,2.91-10.66,3.33-2.23,8.84,9.06,6.44,13.99,8,1.29,1.73-12.18,3.47-12.66,3.99.08,6.83,8.53,5.89,13.32,8.99-19.9,3.91-18.18,4.44,2.16,7.19,7.77,3.11-27.07,3.94-22.4,8.53,0,0,18.93,4.6,18.93,4.6-3.18,4.89-15.86.91-16.66,6.65.51.31,22.71.93,21.99,2.66l-17.32,3c1.98,5.4,24.87,4.68,19.02,8.36-28.43,2.53.02,6.7,10.29,7.97-52.45,7.89,77.9,8.55,43.43.34Z"/>
          <path class="st0" d="M193.24,325.31c-5.93-6.22-13.3-10.92-19.99-15.32-12.94-25.55-13.76-20.12-41.31-21.99,30.88-5.67,31.46-5.27,26.7-36.41-.43-1.51.66-22.58-1.66-22.92-18.74-3.18-54.44.8-9.71,6.71-24.9,8.57-36.47-11.41-31.32,27.66-.08,1.63.48,2.18-1.34.99-7.52-10.18,1.16-31.36-15.99-27.31,3.59,17.41,3.39,39.1,21.24,47.68,2.47,17.88,20.07,12.67,33.4,16.27.19,1.59.02,1.07-.93,1.41-2.81,1.66-9.97.48-11.74,2.59-1.07,4.7,22.8,3.7,24.65,4.67.2,1.59.03,1.07-.92,1.4-28.44,3.84,2.48,7.82,11.58,11.58-1.12.56-13.05,2.17-12.66,4.32,6.76.97,41.42,8.2,29.99-1.33ZM150.59,246.7c.7,1.93-20.51,3.03-21.32,3.33-2.69-6.46,16.41-3.82,21.32-3.33ZM151.92,258.7c-3.57,5.14-16.24,2.63-22.65,4.65-.35-6.77,16.7-3.75,22.65-4.65ZM141.57,270.64c3.39.66,11.24-.68,13.03,1.7-9.82,3.9-36.84,1.01-13.03-1.7Z"/>
          <path class="st0" d="M77.96,206.74c-14.89-3.42-30.16-2.88-45.31-3.99,12.21,5.14,33.04,5.79,45.31,3.99Z"/>
          <path class="st0" d="M89.95,237.38c-.16-1.34-6.63.16-7.33.01,2.23,11.8,5.04,26.88,11.68,37.27,5.4-2.37-1.61-31.32-4.35-37.28Z"/>
          <path class="st0" d="M123.27,309.99c-2.3-.87-8.26-7.4-9.33-4.33,3.13,5.15,12.6,11.5,15.33,17.99,8.19,8.02-3.02-11.01-6-13.65Z"/>
          <path class="st0" d="M44.93,347.68c-15.79-19.86-7.18-2.62.09,6.25,7.41,8.95,3.55-2.46-.09-6.25Z"/>
          <path class="st0" d="M112.61,211.4c7.07.63,15.39,4.38,21.99.67-7.94-.7-19.45-4.52-25.98-.68,1.28.14,2.77-.18,4,0Z"/>
          <path class="st0" d="M78.97,257.35c3,8.25,2.13-23.4-6.34-19.97,1.68,6.78,4.91,13.16,6.34,19.97Z"/>
          <path class="st0" d="M107.02,328.24c-.33-.23-6.75-3.65-5.73-1.27l14.65,13.66c.13-3.47-6.9-10.18-8.92-12.39Z"/>
          <path class="st0" d="M47.31,301.33c1.07,3.16,7.02,2.12,2.23-.89-4.42-7.15-12.3-11.1-19.89-14.42,4.03,6.79,11.69,10.48,17.67,15.31Z"/>
          <path class="st0" d="M149.26,206.07c7.36.37,14.78,3.27,21.99.67-5.38-1.71-18.57-3.06-21.99-.67Z"/>
          <path class="st0" d="M101.28,218.73c-5.24-2.65-15.88-2.69-21.99-1.33,7.21,1.75,14.61,1.34,21.99,1.33Z"/>
          <path class="st0" d="M53.71,325.59c-10.37-7.83-15.17-4.92-2.4,2.38,3.81,1.97,1.89,2.57,3.68,4.65,4.73,1.76,7.41,10.33,11.33,12.66,2.44,1.05-.54-2.92-.71-3.29-2.77-5.91-6.56-12.57-11.89-16.41Z"/>
          <path class="st0" d="M85.29,322.64c-15.79-10.68,9.88,13.85,11,17.32.19-7.2-5.53-13.03-11-17.32Z"/>
          <path class="st0" d="M78.21,339.06c-1.41-2.43-1.83-4.26-4.59-5.74-.64,1.76,5.16,10.6,6.33,9.31.72-2.14-1.37-2.93-1.74-3.57Z"/>
          <path class="st0" d="M56.63,250.7c3.82,2.25,3.86,8.96,8,10.66-1.2-5.18-1.98-4.62-5.13-9.81-.93-1.14-1.65-1.69-2.87-1.51.11.1-.09.47,0,.67Z"/>
          <path class="st0" d="M75.96,285.34c5.89,4.67,11.01,11.24,16.66,17.65,9.42,13.3-9.39-26.53-19.33-19.65,1.61-.03,1.9,1.04,2.67,2Z"/>
          <path class="st0" d="M43.97,269.35c-4.55-1.68-11.18-8.04-15.99-6.66,9.36,4.52,15.9,13.83,23.66,19.97,2.31-2.36-5.06-12.46-7.66-13.31Z"/>
          <path class="st0" d="M52.31,305.98c.39.15,1.13-.06,1.66,0-1.99-3.92-4.11-.94-1.66,0Z"/>
          <path class="st0" d="M43.61,223.36c-4.87.75-14.1-.99-17.63,2.02,11.99.3,25.04,1.53,37.01.7,11-2.09-14.7-2.97-19.38-2.72Z"/>
        </g>
        <path class="st0" d="M195.24,351.29c.76.08.66-.08.33-.65l-.33.65Z"/>
      </g>
    </g>
    <g>
      <path class="st0" d="M467.67,382.78c7.11,3.96,13.12,8.7,18.23,13.98,2.18-18.78-5.8-5.61-18.23-13.98Z"/>
      <g>
        <path class="st0" d="M393.5,477.2l17.18-9.92c-14.09-3.57-13.98-1.3-17.18,9.92Z"/>
        <path class="st0" d="M366.03,422.6c-5.41,9.57-13.56,26.71-12.01,33.97,1.87-6.75,5.73-12.73,8.88-18.93-1.7,18.56.42,36.71,6.8,54.17,1.48-15.78,4.61-32.46,2.54-47.75,3.77,8.06,6.97,16.84,7.15,25.88,5.79-14.67-4.12-35.93-13.38-47.35Z"/>
      </g>
      <g id="peI3sh">
        <g>
          <path class="st0" d="M442,350.78c5.63-5.83,12.8-14.13,20.24-17.66-14.12,4-28.89,16.98-38.02,28.74,15.77,5.02,39.06,1.44,54.71-7.47-10.95,2.72-22.55,5.14-33.83,4.21,24.79-4.42,44.83-19.17,66.61-30.34-24.6,2.13-48.01,12.31-69.71,22.52Z"/>
          <g>
            <path class="st0" d="M368.37,330.01c-2.34-19.07,3.96-37.96,13.45-54.95-8.85,22.13-9.34,55.81-6.52,81.78,9.12-31.79,11.88-65.01,24.42-95.95-.77,32.24-9.1,71.03-17.03,98.27,18.25-22.98,28.45-50.98,31.27-79.76,1.82,20.38-1.35,41.19-10.64,59.61,15.34-.41,6.46,16.86-2.99,18.17-5.19,4.82-9.41,12.51-13.71,17.91,81.96-47.65,48.97-74.95,20.98-141.93.02-4.96-13.77,14.54-16.58,16.03.02-.02.04-.04.04-.04-6.29,4.81-16.58,13.72-22.99,19.63-.37.36-.7.76-1.07,1.12.07.02.14.02.21.01-22.28,18.86-30.32,49.1-17.97,75.69,4.67,10.14,21.73,40.16,15.69,12.34-3.01-8.79-13.83-27.27,4.08-25.96-.65-.52-.53-1.09-.63-1.99ZM390.93,249.28c-.18.17-.32.31-.42.42.14-.14.31-.31.42-.42Z"/>
            <path class="st0" d="M489.5,456.48c-4.89-19.86-5.06-45.39-18.91-60.83.24.95,1.37,1.98,1.82,2.92-1.95-3.53-3.75-6.16-7.21-9.07,1.68,1.57,3.27,3.16,4.66,4.71-19.74-27.64-58.69-25.74-86.07-11.28,25.49,1.39,52.17,8.68,69.66,26.67-.03.06-.21.12-.63.24,1.22,1.26,2.43,2.46,3.58,3.78,3.27,3.78,5.95,7.87,9.13,11.69,0-.09,0-.17-.02-.24.07.22-.04.31-.2.47-11.62-9.16-23.68-23.71-37.62-27.05-.63-2.03-5.84-2.38-8-3.56-7.12-1.96-14.91-4.94-22.34-4.28l1.01-.4c-1.16-.12-2.35-.6-3.51-.31,1.65.94,3.41,1.75,5.1,2.63-.01-.11-.05-.2-.1-.29,4.19,2.85,9.19,5.1,13.53,7.92,3.03,1.83,6.18,3.54,9.08,5.55,7.31,3.44,14.3,12.01,20.25,14.96-.64.88,1.08,1.57,1.69,2.37,9.08,7.98,16.88,17.19,25,26.07l-1.2-.51c-.49-.45-1.19-.85-1.74-1.28h0c-3.14-2.45-6.47-4.76-9.68-7.14-.01.07-.01.14,0,.2-19.57-14.75-39.49-30.1-59.97-43.68,0,.42.29.73.68.99-.86-1.16-1.81-1.4-2.88-2.23-1.45-.8-4.46-2.33-6.06-2.95,6.66,6.33,11.79,14.01,17.59,20.98,8.92,10.97,19.49,18.95,31.39,27.35h0c2.98,1.69,6.23,4.29,9.11,5.96-.05-.17-.15-.34-.27-.51,1.46,2.39-2.85-1.52-3.19-.52-6.01-4.08-14.52-6.86-20.87-11.58.08.42.38.71.75,1.01-.72-.7-1.07-1.44-1.99-1.93-5.64-3.31-9.55-7.99-15.1-10.76l1.17.1c-.66-.61-1.44-.83-2.2-1.31.39.26.8.47,1.21.58-2.07-1.97-3.56-3.79-5.38-5.88-7.91-8.91-14.32-19.09-23.65-26.6.94,16.84-.59,32.46,10.46,46.6,16.61,22.91,47.44,25.78,73.6,28.76,22.19,1.49,45.76,27.19,28.3-8.32ZM399.07,377.23c-1.92.59-3.82,1.21-5.69,1.92,8.27-3.05,16.92-5.08,25.68-6.21-6.77.86-13.5,2.3-19.99,4.29ZM399.59,391.89s.06.08.09.11c-.03-.04-.06-.08-.09-.11ZM420.23,395.56c-.14-.03-.28-.07-.38-.13.1.06.24.1.38.13ZM423.7,405.86c-.29-.19-.6-.37-.81-.56.32.3.85.56,1.23.86-.13-.1-.27-.2-.42-.29ZM424.38,406.38c.05.05.1.11.14.17-.04-.06-.08-.11-.14-.17ZM451.14,413.21c-2.32-1.95-4.72-3.84-7.15-5.67,2.43,1.83,4.83,3.72,7.15,5.67ZM465.38,425.94c-.04.07-.12.14-.25.22.19-.12.31-.22.28-.4.01.05,0,.12-.03.18ZM390.55,394.01c.39.24.72.52,1.03.83-.31-.31-.64-.59-1.03-.83ZM395.71,396.67c.17.11.33.21.44.32-.12-.11-.28-.22-.44-.32ZM377.49,391.68c-.04.2-.05.41-.04.62-.01-.21,0-.42.04-.62ZM377.95,390.81h0c.15-.01.34.09.56.26-.22-.17-.41-.27-.56-.26ZM378.73,391.27c.16.14.32.31.5.49-.17-.18-.34-.35-.5-.49ZM379.77,392.31c.18.19.37.38.56.55-.19-.18-.38-.36-.56-.55ZM400.6,416.56c.83,1.56,2.11,2.53,3.23,3.84-1.12-1.32-2.41-2.29-3.23-3.84ZM388.31,436.24c-.14-.15-.29-.26-.5-.25.35-.02.57.31.74.57-.07-.11-.15-.23-.24-.33ZM403.07,449.54c-1.87-.99-3.55-2.32-5.14-3.56,2.23,1.9,4.94,3.49,7.56,4.91-.76-.48-1.62-.91-2.42-1.34ZM443.11,446.12c-.15-.13-.32-.23-.5-.33.18.09.34.2.5.33ZM441,444.98c.32.23.7.39,1.07.55-.52-.23-1.38-.55-1.42-1.16.03.14.1.43.35.61ZM436.58,442.72c-1.17-.62-2.31-1.28-3.46-1.94,1.14.67,2.28,1.32,3.46,1.94ZM423.97,435.84c-.19-.11-.39-.24-.59-.38.2.14.41.27.59.38ZM408.61,424.88c-.18-.15-.34-.31-.5-.47,1.05,1.01,2.26,1.86,3.4,2.77-.98-.75-1.94-1.51-2.9-2.3ZM493.82,471.36c-.06-.36-.16-.73-.25-1.07.09.34.19.71.25,1.07ZM480.49,414.79c-.12-.03-.23-.15-.32-.3.09.16.2.27.32.3ZM406.39,403.43c.15.16.37.3.57.43-.31-.21-.68-.42-.77-.78.03.13.1.24.21.35ZM397.92,397.96c.29.15.6.27.87.38-.27-.11-.58-.24-.87-.38ZM405.51,403.14l.21-.22c0,.82-6.15-4.36-6.29-4.26l6.08,4.48ZM406.38,413.48c.14,0,.27.04.38.11-.11-.07-.24-.11-.38-.11ZM435.4,438.93c-3.88-2.66-7.68-5.49-11.32-8.48,3.87,3.06,7.7,6.24,11.93,8.77-.26-.11-.49-.21-.61-.29ZM437.29,440.25s.03-.08.03-.12c0,.04,0,.08-.03.12ZM444.66,444.94c.47.28.91.58,1.27.9-.35-.32-.8-.62-1.27-.9ZM440.84,429.22c-5.57-4.16-11.17-8.34-16.77-12.52,10.23,7.64,20.36,15.26,30.67,22.77-4.65-3.4-9.29-6.8-13.9-10.25Z"/>
            <path class="st0" d="M367.71,390.5c-3.59,2.73-9.85,4.81-12.74,7.97.14-.1.08-.43.09-.53-.86.49-1.62,1.09-2.42,1.65,0,0,.55.4.49.35-1.61-.55-3.42,2.12-5.11,2.71-2.01,1.24-4.12,2.31-6.22,3.41-15.95,8.38-34.32,12.53-52.54,13.84l23.38-6.77s-.07-.09-.07-.14c17.24-5.03,32.83-15.44,47.92-25.17-15.93,2.8-32.86,7.62-47.96,13.02-15.46,5.43-30.97,10.59-46.74,15.06,11-6.25,22.49-12.07,33.91-17.46-3.3,1.4-7.01,2.9-9.96,5.02,20-11.35,44.65-16.71,65.58-20.6-25.21-5.09-51.31-.27-74.04,11.31,2.07-.85,4.13-1.72,6.2-2.57-2.94.84-12.24,5.73-11.74,4.49,23.62-19.84,62-23.95,87.03-17.66.33.09.64.19.92.3.49.2,1.29.59,1.7.87-20.25-23.61-62.67-34.13-86.57-9.7.82-.66,1.65-1.4,2.07-2.33-7.7,6.46-15.88,14.81-20.42,23.51.04-.14.06-.28.05-.42-7.84,10.76-20.12,27.21-30.72,35.26,33.94-1.38,100.13,26.61,125.3-8.53,6.25-5.76,14.13-20.69,15.7-28.85-3.6,1.5-6.64,3.63-9.74,5.77,2.43-.93,4.39-2.65,6.67-3.84ZM312.9,412.66c.13-.07.28-.12.41-.17-.13.05-.28.1-.41.17ZM319.02,410.59c-1.18.41-2.39.81-3.6,1.21,1.21-.4,2.43-.8,3.6-1.21ZM337.75,360.99c9.11,3.88,17.19,9.45,24.55,16.05-9.57-8.58-20.54-15.55-33.02-19,2.93.81,5.75,1.8,8.47,2.95ZM255.61,398.15c.95-1.33,1.89-2.66,2.8-3.95-.91,1.29-1.85,2.62-2.8,3.95ZM348.08,402.86c0,.13-.04.24-.13.34.08-.1.13-.21.13-.34ZM350.66,421.54c.49-.51,1.01-.98,1.65-1.27-.64.29-1.17.75-1.65,1.27ZM356.21,397.74c-.15.12-.28.23-.42.25.15-.02.28-.13.42-.25ZM369.28,392.52c.32-.91.85-1.84,1.11-2.72-.25.87-.79,1.8-1.11,2.72Z"/>
          </g>
        </g>
      </g>
    </g>
    <g>
      <g>
        <path class="st0" d="M287.22,266.37c-7.79-.76-54.23-2.67-45.88,1.2,10.66,1.85,36.61,3.6,45.88-1.2Z"/>
        <path class="st0" d="M323.19,281.74l5.07-2.76c-12.86,1.99-33.82-3.92-43.37,1.39,11.53,3.47,26.25,1.62,38.3,1.37Z"/>
        <path class="st0" d="M227.96,281.09c-4.35-.57-.42,2.61.89,3.53,9.34-1.62,17.42-.33,27-2.13,6.77-4.45-22.61-2.04-27.89-1.4Z"/>
        <path class="st0" d="M263.82,345.01c8.2-4.4-44.02,3.88-46.73,4.71-3.96,5.54,38.96.15,46.73-4.71Z"/>
        <path class="st0" d="M250.36,538.87c-2.81.31-5.68.54-8.61.68,3.82,3.07,5.03,1.46,8.61-.68Z"/>
        <path class="st0" d="M143.55,417.01c-89.23-33.09,36.57-44.79,71.63-53.26-42.15-11.22-199.75,35.18-71.63,53.26Z"/>
        <path class="st0" d="M245.47,7.4c-1.79,3.26-153.1,83.21-108.38,83.55,0,0,108.38-62.57,108.38-62.57,0,0,222.27,128.33,222.27,128.33,0,0,0,90.02,0,90.02-13.22-.04-23.05.22-36.29.25,2.6,12.1,14.25,9.17,23.41,11.17-2.29,2.58-12.07.76-17.05,1.1,3.56,6.75,6.04,17.29,13.18,18.41-8.54,6.39,8.45,22.88,3.61,30.59,9.89-4.97,17.67-2.76,31.3-2.26v-159.77L245.47,7.4Z"/>
      </g>
      <path class="st0" d="M329.33,458.98c-18.2,2.59-37.01,4.33-53.58,12.9-15.23,7.08-28.78,20.97-46.45,21.11-1.24.07-1.89-1.6-.88-2.36,15.01-11.12,25.03-28.16,42.5-36.28,15.63-8.82,50.65-10.97,58.4,4.63h0Z"/>
      <path class="st0" d="M342.08,477.06c-22.87.45-78.77,35.36-91.81,18.59,29.44-8.77,58.47-36.25,91.42-21.21,1.34.27,2.02,2.18.39,2.63h0Z"/>
    </g>
  </g>
  <g>
    <path class="st0" d="M414.04,179.77c-8.88-1.19-19.48.67-28.02-2.66,5.21.71,25.23-4.19,28.02,2.66Z"/>
    <path class="st0" d="M377.36,198.82c-24.9-.58-35.32-2.05-2.93-4.77,32.26,2.3,41.49,4.27,2.93,4.77Z"/>
    <path class="st0" d="M352.3,217.33c20.2-3.59,41.28-2.85,61.59-1.14-6.52,5.53-34.42,1.42-61.59,1.14Z"/>
    <path class="st0" d="M280.36,142.54c37.52-3.47,84.17-2.66,124.36-1.34,8.91,8.12-125.11-.93-124.36,1.34Z"/>
    <path class="st0" d="M311.87,203.84c-24.63-.52-48.64-1.23-73.28-2.41,36.03-4.41,74.72-5.97,110.82-.27-11.13,1.99-22.67,2.61-37.54,2.68Z"/>
    <path class="st0" d="M276.95,508.34c-79.35,9.48-66.58-35.83-7.85-64.39-22.81-4.7-55.45-9.46-65.89-11.85,9.2-7.24,21.46-21.13,31.47-33.7-28.02.36-55.8-1.13-83.84-2.24,19.95-2.72,39.63-3.68,60.42-3.88,17.09,1.08,34.59,3.33,38.26-16.9-17.38,4.81-29.02,2.56-46.74,4.48,11.77-5.27,28.53-7.48,41.75-10.07,38.3-7.94,20.81-40.18,79.53-31.83-17.99-33.36,16.74-71.78,44.71-90.95-62.57,1.97-120.48-2.03-180.7,1.83,1.34,2.7.74,13.21,1.74,15.95,1.01.78,28.37.13,29.24.87.95,6.43-27.42,1.45-28.24,4.34.02,3-2.39,16.39-.8,18.93,1.18,1.89,26.91,5.2,29.41,5.47,25.14-.16,50.23,4.6,74.76,9.8-26.14,3.03-61.72-5.46-89.28-7.56,22.22,15.78,68.1,7.26,87.14,26.64-33.41,17.67-38.33,12.4-70.86,11.74-9.46,9.97-26.89,3.74-39.67,6.3-4.35,1.88-22.5-1.5-13.52,4.46,36.48,8.6-63.07,17.26-69.59,24.03-89.44,32.47-10.06,53.49,35.45,67.5-6.03,3.94-47.45-4.14-79.11-5.75,0,0-31.55-18.22-31.55-18.22,0,0,0-256.66,0-256.66,0,0,26.2-15.13,26.2-15.13,0,0-1.28-8.49,2.88-11.07-.61-.29,18.65-11.91,18.59-13.88-.08-2.53-5.02-3.47-6.06-4.92,0,0-59.78,34.51-59.78,34.51v277.64c47.63,27.98,190.59,109.71,240.44,138.82,0,0,111.24-64.23,111.24-64.23-3.71-4.45-7.03-8.92-9.84-13.47-15.33,12.12-55.92,14.07-69.91,23.37ZM255.85,282.49c-9.21.06-22.9,4.48-29.82-.36,1.11-3.06,39.4-3.13,29.82.36ZM241.34,267.58c-8.49-3.86,38.11-1.97,45.88-1.21-9.26,4.8-35.23,3.06-45.88,1.21ZM284.89,280.37c9.57-5.31,30.49.6,43.37-1.39-12.25,5.78-30.43,3.86-43.37,1.39ZM217.08,349.71c11.22-2.47,36.5-5.61,48.44-6.27-2.83,6.8-55.39,11.41-48.44,6.27ZM143.55,417.01c-128.18-18.09,29.58-64.49,71.63-53.26-35.07,8.47-160.85,20.17-71.63,53.26ZM245.47,541.69l-3.72-2.15c2.94-.14,5.81-.37,8.61-.68l-4.89,2.83Z"/>
    <path class="st0" d="M231.22,162.91c-14.77-.24-27.29.15-41.44-1.81,34.37-4.17,76.4-5.41,110.3-1.22-22.55,2.17-46.46,2.88-68.86,3.03Z"/>
    <path class="st0" d="M231.58,131.87c-11.08-.28-20.71.17-31.12-1.78,24.84-5.76,49.64-3.1,76.67-.97-14.37,1.82-30.06,2.74-45.55,2.75Z"/>
    <path class="st0" d="M271.32,109.85c-11.08-.28-20.71.17-31.12-1.78,24.84-5.76,49.64-3.1,76.67-.97-14.37,1.82-30.06,2.74-45.55,2.75Z"/>
    <path class="st0" d="M333.55,240.38c-72.8-1.51,27.62-6.15,50.55-1.67-16.75,1.63-33.61,1.27-50.55,1.67Z"/>
    <path class="st0" d="M377.99,164.65c-13.71.02-28.54-2.3-41.74-3.35,15.32-2.07,43.78-4.32,60.82.86-4.7,1.67-10.95,2.49-19.08,2.49Z"/>
    <path class="st0" d="M247.79,188.91c-11.73,0-23.5-.92-34.03-1.9,22.33-3.27,45.48-1.74,67.99-1.03-10.85,2.02-22.53,2.92-33.96,2.93Z"/>
    <path class="st0" d="M274.57,220.87c-8.49-.05-15.24-.53-21.75-1.98,20-2.29,38.97-2.61,57.86.32-11.82.37-23.99,1.67-36.1,1.67Z"/>
    <path class="st0" d="M201.03,63.51c-8.49-.05-15.24-.53-21.75-1.98,20-2.29,38.97-2.61,57.86.32-11.82.37-23.99,1.67-36.1,1.67Z"/>
    <path class="st0" d="M198.48,148.57c-8.33,0-17.46-.91-27.23-2.71,17.69-3.77,37.75.24,55.96.08-8.82,2.32-19.58,1.13-28.73,2.62Z"/>
    <path class="st0" d="M375.5,126.91c-11.61-.24-24.39-.55-35.7-2.77,16.89-.2,40.44-4.52,56.11,2.58-6.75-.17-13.63.19-20.41.19Z"/>
    <path class="st0" d="M325.07,90.66c-11.61-.24-24.39-.55-35.7-2.77,16.89-.2,40.44-4.52,56.11,2.58-6.75-.17-13.63.19-20.41.19Z"/>
    <path class="st0" d="M184.04,104.38c-11.5-.23-24.18-.56-35.39-2.71,18.1,1.1,37.67-7.27,55.8,2.52-6.75-.17-13.63.19-20.41.19Z"/>
    <path class="st0" d="M265.25,94.97c-11.5-.23-24.18-.56-35.39-2.71,18.1,1.1,37.67-7.27,55.8,2.52-6.75-.17-13.63.19-20.41.19Z"/>
    <path class="st0" d="M190.83,182.81c-4.64,0-8.57-.44-12.33-1.38,8.68-2.53,18.75-1.38,27.76.28-5.04.92-10.44.95-15.42,1.09Z"/>
    <path class="st0" d="M242.87,242.95c-4.64,0-8.57-.44-12.33-1.38,8.68-2.53,18.75-1.38,27.76.28-5.04.92-10.44.95-15.42,1.09Z"/>
    <path class="st0" d="M220.53,205.02c-4.64,0-8.57-.44-12.33-1.38,8.68-2.53,18.75-1.38,27.76.28-5.04.92-10.44.95-15.42,1.09Z"/>
    <path class="st0" d="M410.94,229.59c8.34-2.15,21.42-2.7,29.19.73l-29.19-.73"/>
    <path class="st0" d="M161.75,128.19c-3.35,0-6.35-.43-9.23-1.34,6.86-1.65,14.99-.6,22.11.1-4.33.56-8.71,1.24-12.88,1.24Z"/>
  </g>
</svg>